<svg width="56" height="56" viewBox="0 0 56 56" fill="none" xmlns="http://www.w3.org/2000/svg">
<path d="M0 36V0.599998H1.8V36H0ZM3.6 36V0.599998H5.4V36H3.6ZM10.8 36V0.599998H16.2V36H10.8ZM18 36V0.599998H23.4V36H18ZM25.2 36V0.599998H27V36H25.2ZM14.4 41.16C15.76 41.16 16.82 41.78 17.58 43.02C18.34 44.3 18.72 46.04 18.72 48.24C18.72 50.52 18.34 52.28 17.58 53.52C16.86 54.76 15.8 55.38 14.4 55.38C13 55.38 11.94 54.76 11.22 53.52C10.46 52.28 10.08 50.52 10.08 48.24C10.08 46.04 10.46 44.3 11.22 43.02C11.98 41.78 13.04 41.16 14.4 41.16ZM14.4 42.54C13.56 42.54 12.9 43.04 12.42 44.04C11.94 45.08 11.7 46.48 11.7 48.24C11.7 49.24 11.76 50.1 11.88 50.82L16.62 44.7C16.42 44.02 16.12 43.48 15.72 43.08C15.36 42.72 14.92 42.54 14.4 42.54ZM14.4 54C15.24 54 15.9 53.52 16.38 52.56C16.86 51.56 17.1 50.12 17.1 48.24C17.1 47.4 17.04 46.66 16.92 46.02L12.24 52.08C12.68 53.36 13.4 54 14.4 54ZM28.8281 36V0.599998H30.6281V36H28.8281ZM32.4281 36V0.599998H37.8281V36H32.4281ZM43.2281 36V0.599998H45.0281V36H43.2281ZM46.8281 36V0.599998H48.6281V36H46.8281ZM50.4281 36V0.599998H55.8281V36H50.4281ZM39.2681 53.88L41.0681 52.08C42.2681 50.88 43.1681 49.92 43.7681 49.2C44.3681 48.52 44.8481 47.84 45.2081 47.16C45.5681 46.52 45.7481 45.82 45.7481 45.06C45.7481 44.18 45.5481 43.54 45.1481 43.14C44.7081 42.74 44.1281 42.54 43.4081 42.54C42.2881 42.54 41.3481 43 40.5881 43.92C40.4281 44.16 40.3481 44.36 40.3481 44.52C40.3481 44.64 40.3481 44.72 40.3481 44.76L40.2281 44.88L40.1081 44.76L38.9681 43.86C39.4081 42.98 40.0081 42.32 40.7681 41.88C41.5281 41.4 42.4081 41.16 43.4081 41.16C44.5681 41.16 45.5281 41.52 46.2881 42.24C47.0081 42.96 47.3681 43.92 47.3681 45.12C47.3681 45.92 47.1681 46.7 46.7681 47.46C46.4081 48.22 45.9281 48.94 45.3281 49.62C44.7281 50.3 43.8881 51.18 42.8081 52.26L41.3081 53.76H46.4681C46.7081 53.76 46.8881 53.76 47.0081 53.76C47.0881 53.72 47.1881 53.66 47.3081 53.58H47.4281V55.14H39.2681V53.88Z" fill="#182A42"/>
</svg>
