<svg width="56" height="56" viewBox="0 0 56 56" fill="none" xmlns="http://www.w3.org/2000/svg">
<path d="M0 36V0.599998H1.8V36H0ZM3.6 36V0.599998H5.4V36H3.6ZM10.8 36V0.599998H16.2V36H10.8ZM18 36V0.599998H23.4V36H18ZM25.2 36V0.599998H27V36H25.2ZM14.4 41.16C15.76 41.16 16.82 41.78 17.58 43.02C18.34 44.3 18.72 46.04 18.72 48.24C18.72 50.52 18.34 52.28 17.58 53.52C16.86 54.76 15.8 55.38 14.4 55.38C13 55.38 11.94 54.76 11.22 53.52C10.46 52.28 10.08 50.52 10.08 48.24C10.08 46.04 10.46 44.3 11.22 43.02C11.98 41.78 13.04 41.16 14.4 41.16ZM14.4 42.54C13.56 42.54 12.9 43.04 12.42 44.04C11.94 45.08 11.7 46.48 11.7 48.24C11.7 49.24 11.76 50.1 11.88 50.82L16.62 44.7C16.42 44.02 16.12 43.48 15.72 43.08C15.36 42.72 14.92 42.54 14.4 42.54ZM14.4 54C15.24 54 15.9 53.52 16.38 52.56C16.86 51.56 17.1 50.12 17.1 48.24C17.1 47.4 17.04 46.66 16.92 46.02L12.24 52.08C12.68 53.36 13.4 54 14.4 54ZM28.8281 36V0.599998H30.6281V36H28.8281ZM32.4281 36V0.599998H34.2281V36H32.4281ZM39.6281 36V0.599998H45.0281V36H39.6281ZM46.8281 36V0.599998H48.6281V36H46.8281ZM50.4281 36V0.599998H55.8281V36H50.4281ZM44.7281 51.72H38.7281V50.58L45.0881 41.22H46.4081V50.46H48.1481V51.72H46.4081V55.14H44.7281V51.72ZM44.7281 50.4V44.04L40.5281 50.4H44.7281Z" fill="#E1E1E1"/>
</svg>
