<svg width="56" height="56" viewBox="0 0 56 56" fill="none" xmlns="http://www.w3.org/2000/svg">
<path d="M0 36V0.599998H1.8V36H0ZM3.6 36V0.599998H5.4V36H3.6ZM10.8 36V0.599998H16.2V36H10.8ZM18 36V0.599998H23.4V36H18ZM25.2 36V0.599998H27V36H25.2ZM14.4 41.16C15.76 41.16 16.82 41.78 17.58 43.02C18.34 44.3 18.72 46.04 18.72 48.24C18.72 50.52 18.34 52.28 17.58 53.52C16.86 54.76 15.8 55.38 14.4 55.38C13 55.38 11.94 54.76 11.22 53.52C10.46 52.28 10.08 50.52 10.08 48.24C10.08 46.04 10.46 44.3 11.22 43.02C11.98 41.78 13.04 41.16 14.4 41.16ZM14.4 42.54C13.56 42.54 12.9 43.04 12.42 44.04C11.94 45.08 11.7 46.48 11.7 48.24C11.7 49.24 11.76 50.1 11.88 50.82L16.62 44.7C16.42 44.02 16.12 43.48 15.72 43.08C15.36 42.72 14.92 42.54 14.4 42.54ZM14.4 54C15.24 54 15.9 53.52 16.38 52.56C16.86 51.56 17.1 50.12 17.1 48.24C17.1 47.4 17.04 46.66 16.92 46.02L12.24 52.08C12.68 53.36 13.4 54 14.4 54ZM28.8281 36V0.599998H34.2281V36H28.8281ZM36.0281 36V0.599998H41.4281V36H36.0281ZM46.8281 36V0.599998H48.6281V36H46.8281ZM50.4281 36V0.599998H52.2281V36H50.4281ZM54.0281 36V0.599998H55.8281V36H54.0281ZM42.9881 55.38C42.2681 55.38 41.5681 55.24 40.8881 54.96C40.2481 54.72 39.6881 54.34 39.2081 53.82L40.2281 52.56L40.3481 52.38L40.4681 52.5C40.5081 52.66 40.5481 52.8 40.5881 52.92C40.6281 53 40.7281 53.12 40.8881 53.28C41.1681 53.52 41.4681 53.7 41.7881 53.82C42.1081 53.98 42.4881 54.06 42.9281 54.06C43.8081 54.06 44.4681 53.8 44.9081 53.28C45.3481 52.8 45.5681 52.12 45.5681 51.24C45.5681 50.32 45.2881 49.64 44.7281 49.2C44.1681 48.72 43.3881 48.48 42.3881 48.48C42.2281 48.48 41.9881 48.5 41.6681 48.54V47.28C42.9881 47.28 43.8881 47.04 44.3681 46.56C44.8481 46.08 45.0881 45.4 45.0881 44.52C45.0881 43.92 44.9081 43.42 44.5481 43.02C44.1881 42.66 43.7081 42.48 43.1081 42.48C42.1481 42.48 41.3081 42.82 40.5881 43.5L39.6281 42.6C40.5481 41.64 41.7081 41.16 43.1081 41.16C44.2281 41.16 45.1081 41.48 45.7481 42.12C46.3881 42.72 46.7081 43.56 46.7081 44.64C46.7081 45.36 46.5281 46.02 46.1681 46.62C45.7681 47.18 45.2281 47.56 44.5481 47.76C45.3481 48.04 45.9881 48.48 46.4681 49.08C46.9481 49.68 47.1881 50.42 47.1881 51.3C47.1881 52.06 47.0281 52.74 46.7081 53.34C46.3481 53.98 45.8681 54.48 45.2681 54.84C44.6281 55.2 43.8681 55.38 42.9881 55.38Z" fill="#E1E1E1"/>
</svg>
