<svg width="56" height="56" viewBox="0 0 56 56" fill="none" xmlns="http://www.w3.org/2000/svg">
<path d="M0 36V0.599998H1.8V36H0ZM3.6 36V0.599998H5.4V36H3.6ZM10.8 36V0.599998H16.2V36H10.8ZM18 36V0.599998H23.4V36H18ZM25.2 36V0.599998H27V36H25.2ZM14.4 41.16C15.76 41.16 16.82 41.78 17.58 43.02C18.34 44.3 18.72 46.04 18.72 48.24C18.72 50.52 18.34 52.28 17.58 53.52C16.86 54.76 15.8 55.38 14.4 55.38C13 55.38 11.94 54.76 11.22 53.52C10.46 52.28 10.08 50.52 10.08 48.24C10.08 46.04 10.46 44.3 11.22 43.02C11.98 41.78 13.04 41.16 14.4 41.16ZM14.4 42.54C13.56 42.54 12.9 43.04 12.42 44.04C11.94 45.08 11.7 46.48 11.7 48.24C11.7 49.24 11.76 50.1 11.88 50.82L16.62 44.7C16.42 44.02 16.12 43.48 15.72 43.08C15.36 42.72 14.92 42.54 14.4 42.54ZM14.4 54C15.24 54 15.9 53.52 16.38 52.56C16.86 51.56 17.1 50.12 17.1 48.24C17.1 47.4 17.04 46.66 16.92 46.02L12.24 52.08C12.68 53.36 13.4 54 14.4 54ZM28.8281 36V0.599998H34.2281V36H28.8281ZM36.0281 36V0.599998H37.8281V36H36.0281ZM43.2281 36V0.599998H48.6281V36H43.2281ZM50.4281 36V0.599998H52.2281V36H50.4281ZM54.0281 36V0.599998H55.8281V36H54.0281ZM43.2281 55.38C42.3481 55.38 41.5481 55.2 40.8281 54.84C40.1081 54.48 39.5281 53.94 39.0881 53.22L40.5281 52.2L40.5881 52.26C40.5881 52.42 40.6081 52.56 40.6481 52.68C40.6881 52.76 40.7881 52.88 40.9481 53.04C41.2281 53.4 41.5681 53.66 41.9681 53.82C42.3281 53.94 42.7681 54 43.2881 54C43.7681 54 44.2081 53.88 44.6081 53.64C45.0481 53.36 45.3881 52.96 45.6281 52.44C45.8681 51.96 45.9881 51.38 45.9881 50.7C45.9881 49.7 45.7081 48.9 45.1481 48.3C44.6281 47.7 43.9481 47.4 43.1081 47.4C42.6681 47.4 42.2081 47.52 41.7281 47.76C41.2881 48 40.8881 48.32 40.5281 48.72L39.5681 48.3L39.9881 41.22H47.0681V42.66H41.3081L41.1281 46.62C41.8481 46.26 42.6081 46.08 43.4081 46.08C44.2081 46.08 44.9081 46.28 45.5081 46.68C46.1481 47.04 46.6481 47.58 47.0081 48.3C47.3681 49.02 47.5481 49.84 47.5481 50.76C47.5481 51.72 47.3681 52.54 47.0081 53.22C46.6081 53.94 46.0881 54.48 45.4481 54.84C44.7681 55.2 44.0281 55.38 43.2281 55.38Z" fill="#182A42"/>
</svg>
