<svg width="122" height="122" viewBox="0 0 122 122" fill="none" xmlns="http://www.w3.org/2000/svg">
<path d="M99.4752 64.549V57.4511C99.4751 56.9391 99.285 56.4455 98.9417 56.0657C98.5984 55.6859 98.1264 55.447 97.6171 55.3954L89.5541 54.578C89.1436 54.5353 88.7552 54.371 88.4385 54.1063C88.1219 53.8416 87.8914 53.4884 87.7766 53.092C87.2423 51.2793 86.524 49.526 85.6331 47.8594C85.4361 47.4962 85.3522 47.0824 85.3919 46.6712C85.4317 46.2599 85.5934 45.8699 85.8563 45.5512L91.0316 39.3133C91.358 38.9187 91.5263 38.4168 91.5037 37.9051C91.4812 37.3934 91.2695 36.9084 90.9096 36.5439L85.932 31.4846C85.572 31.121 85.0903 30.9033 84.5796 30.8734C84.0688 30.8434 83.565 31.0033 83.165 31.3223L76.843 36.3975C76.5212 36.6533 76.1307 36.8077 75.7211 36.8412C75.3114 36.8746 74.901 36.7856 74.542 36.5854C72.7568 35.5927 70.8673 34.8002 68.9081 34.2223C68.5127 34.1079 68.1603 33.8786 67.8957 33.5633C67.6311 33.2481 67.4662 32.8613 67.4221 32.452L66.6047 24.3878C66.5531 23.8785 66.3142 23.4065 65.9344 23.0633C65.5546 22.72 65.061 22.5299 64.549 22.5298H57.4511C56.9391 22.5299 56.4455 22.72 56.0657 23.0633C55.6859 23.4065 55.447 23.8785 55.3954 24.3878L54.578 32.452C54.5351 32.8617 54.3712 33.2492 54.1072 33.5654C53.8432 33.8815 53.4911 34.1119 53.0957 34.2271C51.1354 34.8033 49.2447 35.5942 47.458 36.5854C47.0982 36.7872 46.6864 36.8771 46.2753 36.8436C45.8641 36.8102 45.4722 36.6549 45.1498 36.3975L38.8278 31.3223C38.4278 31.0033 37.924 30.8434 37.4132 30.8734C36.9024 30.9033 36.4208 31.121 36.0608 31.4846L31.0832 36.5439C30.7233 36.9084 30.5116 37.3934 30.489 37.9051C30.4665 38.4168 30.6348 38.9187 30.9612 39.3133L36.1364 45.5512C36.3993 45.8699 36.5611 46.2599 36.6008 46.6712C36.6406 47.0824 36.5566 47.4962 36.3597 47.8594C35.4687 49.526 34.7505 51.2793 34.2162 53.092C34.1022 53.4865 33.8738 53.8383 33.5597 54.1028C33.2457 54.3674 32.8602 54.5327 32.452 54.578L24.3891 55.3954C23.8798 55.447 23.4077 55.6859 23.0645 56.0657C22.7212 56.4455 22.5311 56.9391 22.531 57.4511V64.549C22.5311 65.061 22.7212 65.5546 23.0645 65.9344C23.4077 66.3142 23.8798 66.553 24.3891 66.6047L32.452 67.4221C32.8626 67.4648 33.251 67.629 33.5676 67.8938C33.8843 68.1585 34.1148 68.5116 34.2296 68.9081C34.7639 70.7208 35.4822 72.4741 36.3731 74.1407C36.5701 74.5039 36.654 74.9176 36.6143 75.3289C36.5745 75.7402 36.4128 76.1302 36.1499 76.4489L30.9746 82.6868C30.6482 83.0814 30.4799 83.5833 30.5025 84.095C30.525 84.6066 30.7367 85.0917 31.0966 85.4562L36.0742 90.5155C36.4342 90.8791 36.9159 91.0968 37.4266 91.1267C37.9374 91.1567 38.4412 90.9968 38.8412 90.6778L45.1632 85.6026C45.4844 85.348 45.8737 85.1944 46.2822 85.1609C46.6906 85.1275 47.0998 85.2158 47.458 85.4147C49.2433 86.4074 51.1328 87.1999 53.092 87.7778C53.4874 87.8921 53.8398 88.1215 54.1044 88.4368C54.369 88.752 54.5339 89.1388 54.578 89.548L55.3954 97.6122C55.447 98.1216 55.6859 98.5936 56.0657 98.9368C56.4455 99.2801 56.9391 99.4702 57.4511 99.4703H64.549C65.061 99.4702 65.5546 99.2801 65.9344 98.9368C66.3142 98.5936 66.5531 98.1216 66.6047 97.6122L67.4221 89.548C67.465 89.1384 67.6289 88.7509 67.8929 88.4347C68.1569 88.1186 68.509 87.8882 68.9044 87.7729C70.8647 87.1968 72.7554 86.4059 74.542 85.4147C74.9019 85.2129 75.3137 85.123 75.7248 85.1564C76.136 85.1899 76.5279 85.3452 76.8503 85.6026L83.1723 90.6778C83.5723 90.9968 84.0761 91.1567 84.5869 91.1267C85.0976 91.0968 85.5793 90.8791 85.9393 90.5155L90.9169 85.4562C91.2768 85.0917 91.4885 84.6066 91.5111 84.095C91.5336 83.5833 91.3653 83.0814 91.0389 82.6868L85.8636 76.4489C85.6007 76.1302 85.439 75.7402 85.3993 75.3289C85.3595 74.9176 85.4434 74.5039 85.6404 74.1407C86.5314 72.4741 87.2496 70.7208 87.7839 68.9081C87.8987 68.5116 88.1292 68.1585 88.4459 67.8938C88.7625 67.629 89.151 67.4648 89.5615 67.4221L97.6244 66.6047C98.1324 66.5514 98.6027 66.3118 98.9444 65.9321C99.2862 65.5525 99.4753 65.0598 99.4752 64.549Z" stroke="#020202" stroke-width="2" stroke-miterlimit="10" stroke-linecap="round"/>
<path d="M47.1165 67.5879C48.3643 70.2133 50.331 72.4311 52.7884 73.984C55.2458 75.5369 58.0931 76.3611 61.0001 76.3611C63.907 76.3611 66.7543 75.5369 69.2117 73.984C71.6691 72.4311 73.6358 70.2133 74.8837 67.5879" stroke="#020202" stroke-width="2" stroke-miterlimit="10" stroke-linecap="round"/>
<path d="M47.1165 54.4119C48.3643 51.7864 50.331 49.5686 52.7884 48.0158C55.2458 46.4629 58.0931 45.6387 61.0001 45.6387C63.907 45.6387 66.7543 46.4629 69.2117 48.0158C71.6691 49.5686 73.6358 51.7864 74.8837 54.4119" stroke="#020202" stroke-width="2" stroke-miterlimit="10" stroke-linecap="round"/>
<path d="M52.8773 65.259C53.8336 66.9874 55.3437 68.3437 57.1644 69.1098C58.9851 69.8758 61.0106 70.007 62.9149 69.4822C64.8193 68.9574 66.4917 67.8072 67.663 66.2166C68.8342 64.626 69.4363 62.6876 69.3723 60.7134C69.3083 58.7391 68.5819 56.8438 67.31 55.3324C66.0381 53.8211 64.2947 52.7816 62.3604 52.3813C60.426 51.981 58.4133 52.2432 56.646 53.1256C54.8788 54.008 53.4598 55.4593 52.6174 57.246" stroke="#020202" stroke-width="2" stroke-miterlimit="10" stroke-linecap="round"/>
</svg>
