<svg width="122" height="122" viewBox="0 0 122 122" fill="none" xmlns="http://www.w3.org/2000/svg">
<path d="M65.9446 95.7772H94.5084C95.4478 95.7772 96.2164 95.105 96.2164 94.284V56.8422C96.2164 56.0199 95.4478 55.3477 94.5084 55.3477H65.9446C65.0052 55.3477 64.2366 56.0199 64.2366 56.8422V88.0546" stroke="#020202" stroke-width="2" stroke-miterlimit="10" stroke-linecap="round"/>
<path d="M56.2993 72.4487H27.2474C26.4389 72.4487 25.7834 73.1042 25.7834 73.9127V94.3148C25.7834 95.1233 26.4389 95.7788 27.2474 95.7788H56.2993C57.1079 95.7788 57.7633 95.1233 57.7633 94.3148V73.9127C57.7633 73.1042 57.1079 72.4487 56.2993 72.4487Z" stroke="#020202" stroke-width="2" stroke-miterlimit="10" stroke-linecap="round"/>
<path d="M56.0553 66.6522H27.4914C26.552 66.6522 25.7834 65.98 25.7834 65.1577V27.7159C25.7834 26.8949 26.552 26.2227 27.4914 26.2227H56.0553C56.9947 26.2227 57.7633 26.8949 57.7633 27.7159V58.926" stroke="#020202" stroke-width="2" stroke-miterlimit="10" stroke-linecap="round"/>
<path d="M65.7007 49.5518L94.7526 49.5518C95.5611 49.5518 96.2166 48.8963 96.2166 48.0878V27.6857C96.2166 26.8772 95.5611 26.2217 94.7526 26.2217L65.7007 26.2217C64.8922 26.2217 64.2367 26.8772 64.2367 27.6857V48.0878C64.2367 48.8963 64.8922 49.5518 65.7007 49.5518Z" stroke="#020202" stroke-width="2" stroke-miterlimit="10" stroke-linecap="round"/>
</svg>
