<svg width="175" height="175" viewBox="0 0 175 175" fill="none" xmlns="http://www.w3.org/2000/svg">
<path d="M87.5615 64.2305H87.5609C82.9721 64.2305 78.4863 65.5912 74.6708 68.1406C70.8554 70.6901 67.8816 74.3136 66.1255 78.5532C64.3694 82.7927 63.91 87.4578 64.8052 91.9584C65.7004 96.4591 67.9102 100.593 71.155 103.838C74.3998 107.083 78.5339 109.293 83.0345 110.188C87.5352 111.083 92.2003 110.624 96.4398 108.867C100.679 107.111 104.303 104.138 106.852 100.322C109.402 96.5066 110.763 92.0209 110.763 87.432V87.4315C110.756 81.2802 108.31 75.3827 103.96 71.033C99.6103 66.6834 93.7128 64.2369 87.5615 64.2305ZM87.5604 101.912L87.0609 101.913V101.917C84.3684 101.825 81.7511 100.984 79.5053 99.4841C77.1208 97.8913 75.2621 95.6272 74.1644 92.978C73.0667 90.3289 72.7794 87.4137 73.3386 84.6012C73.8979 81.7886 75.2787 79.2052 77.3064 77.1775C79.3341 75.1498 81.9176 73.769 84.7301 73.2097C87.5426 72.6505 90.4578 72.9378 93.1069 74.0355C95.7561 75.1332 98.0202 76.9918 99.613 79.3764C101.206 81.7607 102.055 84.5638 102.055 87.431C102.047 91.2716 100.517 94.9524 97.8001 97.6669C95.0832 100.381 91.4009 101.908 87.5604 101.912Z" fill="#12161C" stroke="#12161C"/>
<mask id="path-2-outside-1_182_147" maskUnits="userSpaceOnUse" x="16.5361" y="16.2949" width="143" height="143" fill="black">
<rect fill="white" x="16.5361" y="16.2949" width="143" height="143"/>
<path d="M146.418 69.2061H139.666L137.311 63.5205L142.085 58.7457C144.214 56.6131 145.41 53.7231 145.41 50.7101C145.41 47.697 144.214 44.807 142.085 42.6745L132.403 32.9889C130.272 30.8586 127.381 29.662 124.368 29.662C121.354 29.662 118.464 30.8586 116.332 32.9889L111.554 37.7671L105.872 35.412V28.6593C105.868 25.6464 104.67 22.7579 102.539 20.6274C100.409 18.497 97.5203 17.2985 94.5073 17.2949H80.8116C77.7987 17.2985 74.9102 18.497 72.7798 20.6274C70.6493 22.7579 69.4509 25.6464 69.4473 28.6593V35.412L63.7617 37.7671L58.9869 32.9889C56.8552 30.8586 53.9649 29.662 50.9513 29.662C47.9376 29.662 45.0473 30.8586 42.9157 32.9889L33.2335 42.6745C31.1049 44.807 29.9094 47.697 29.9094 50.7101C29.9094 53.7231 31.1049 56.6131 33.2335 58.7457L38.0083 63.5205L35.6532 69.2061H28.9005C25.8876 69.2097 22.9991 70.4081 20.8687 72.5386C18.7382 74.669 17.5397 77.5575 17.5361 80.5704V94.2661C17.5397 97.2791 18.7382 100.168 20.8687 102.298C22.9991 104.428 25.8876 105.627 28.9005 105.631H35.6532L38.0083 111.313L33.2335 116.091C31.1049 118.223 29.9094 121.113 29.9094 124.126C29.9094 127.14 31.1049 130.03 33.2335 132.162L42.9157 141.844C45.0473 143.975 47.9376 145.171 50.9513 145.171C53.9649 145.171 56.8552 143.975 58.9869 141.844L63.7617 137.069L69.4473 139.421V146.177C69.4509 149.19 70.6493 152.079 72.7798 154.209C74.9102 156.34 77.7987 157.538 80.8116 157.542H94.5073C97.5203 157.538 100.409 156.34 102.539 154.209C104.67 152.079 105.868 149.19 105.872 146.177V139.421L111.554 137.069L116.332 141.844C118.464 143.975 121.354 145.171 124.368 145.171C127.381 145.171 130.272 143.975 132.403 141.844L142.085 132.162C144.214 130.03 145.41 127.14 145.41 124.126C145.41 121.113 144.214 118.223 142.085 116.091L137.311 111.313L139.666 105.631H146.418C149.431 105.627 152.32 104.428 154.45 102.298C156.581 100.168 157.779 97.2791 157.783 94.2661V80.5704C157.779 77.5575 156.581 74.669 154.45 72.5386C152.32 70.4081 149.431 69.2097 146.418 69.2061ZM150.075 94.2661C150.073 95.2354 149.688 96.1645 149.002 96.8498C148.317 97.5352 147.388 97.9211 146.418 97.9229H137.09C136.327 97.9226 135.582 98.1485 134.948 98.572C134.314 98.9954 133.82 99.5974 133.528 100.302L129.205 110.742C128.913 111.446 128.836 112.221 128.985 112.968C129.133 113.716 129.499 114.403 130.038 114.942L136.638 121.539C137.321 122.226 137.705 123.156 137.705 124.125C137.705 125.094 137.321 126.024 136.638 126.711L126.952 136.397C126.613 136.736 126.209 137.006 125.766 137.19C125.322 137.373 124.846 137.468 124.366 137.468C123.886 137.468 123.41 137.373 122.966 137.19C122.523 137.006 122.119 136.736 121.78 136.397L115.183 129.8C114.645 129.26 113.958 128.893 113.211 128.743C112.463 128.594 111.688 128.669 110.983 128.961L100.543 133.284C99.8386 133.575 99.2366 134.069 98.8132 134.703C98.3897 135.337 98.1638 136.083 98.1641 136.845V146.174C98.1623 147.143 97.7764 148.072 97.091 148.758C96.4057 149.443 95.4766 149.829 94.5073 149.831H80.8116C79.8424 149.829 78.9133 149.443 78.2279 148.758C77.5426 148.072 77.1567 147.143 77.1549 146.174V136.849C77.1551 136.086 76.9292 135.341 76.5058 134.707C76.0823 134.073 75.4804 133.579 74.776 133.287L64.3326 128.961C63.8668 128.765 63.3664 128.664 62.8611 128.665C61.8411 128.666 60.8632 129.072 60.1423 129.793L53.5426 136.393C53.2035 136.733 52.8007 137.003 52.3572 137.187C51.9137 137.371 51.4382 137.466 50.9581 137.466C50.4779 137.466 50.0024 137.371 49.5589 137.187C49.1154 137.003 48.7126 136.733 48.3736 136.393L38.688 126.711C38.0028 126.025 37.6179 125.095 37.6179 124.125C37.6179 123.155 38.0028 122.225 38.688 121.539L45.2844 114.942C45.8236 114.403 46.1908 113.717 46.3396 112.969C46.4884 112.221 46.4121 111.446 46.1204 110.742L41.7942 100.302C41.503 99.5977 41.0095 98.9958 40.3761 98.5724C39.7427 98.1489 38.9979 97.9229 38.236 97.9229H28.9005C27.9306 97.922 27.0007 97.5365 26.3146 96.851C25.6285 96.1656 25.2422 95.236 25.2404 94.2661V80.5704C25.2413 79.6003 25.6273 78.6702 26.3136 77.9845C26.9999 77.2989 27.9304 76.9137 28.9005 76.9137H38.2224C38.9842 76.9133 39.7288 76.687 40.3621 76.2636C40.9954 75.8402 41.489 75.2386 41.7806 74.5348L46.1068 64.0914C46.3987 63.3877 46.4751 62.6131 46.3263 61.8659C46.1774 61.1187 45.8101 60.4325 45.2708 59.8943L38.6744 53.2946C37.9892 52.6083 37.6043 51.6782 37.6043 50.7084C37.6043 49.7386 37.9892 48.8084 38.6744 48.1222L48.36 38.44C49.0456 37.755 49.9752 37.3702 50.9445 37.3702C51.9137 37.3702 52.8433 37.755 53.529 38.44L60.1287 45.0364C60.6674 45.5749 61.3536 45.9417 62.1006 46.0905C62.8476 46.2393 63.6219 46.1634 64.3258 45.8724L74.7692 41.5462C75.4733 41.255 76.0751 40.7615 76.4986 40.1281C76.9221 39.4947 77.1481 38.7499 77.1481 37.988V28.6593C77.149 27.6894 77.5345 26.7595 78.2199 26.0734C78.9054 25.3873 79.835 25.001 80.8048 24.9992H94.5005C95.4704 25.001 96.4 25.3873 97.0854 26.0734C97.7709 26.7595 98.1564 27.6894 98.1573 28.6593V37.988C98.1573 38.7499 98.3833 39.4947 98.8068 40.1281C99.2302 40.7615 99.8321 41.255 100.536 41.5462L110.976 45.8724C111.68 46.1641 112.456 46.2404 113.203 46.0916C113.951 45.9428 114.638 45.5756 115.177 45.0364L121.773 38.44C122.459 37.7547 123.389 37.3699 124.359 37.3699C125.329 37.3699 126.259 37.7547 126.945 38.44L136.631 48.1222C137.315 48.8093 137.698 49.7391 137.698 50.7084C137.698 51.6776 137.315 52.6074 136.631 53.2946L130.031 59.8943C129.492 60.4329 129.126 61.1192 128.978 61.8664C128.829 62.6136 128.906 63.388 129.199 64.0914L133.521 74.5348C133.814 75.2386 134.308 75.8401 134.942 76.2634C135.576 76.6868 136.321 76.913 137.083 76.9137H146.412C147.381 76.9146 148.311 77.3002 148.996 77.9857C149.682 78.6713 150.067 79.6009 150.068 80.5704L150.075 94.2661Z"/>
</mask>
<path d="M146.418 69.2061H139.666L137.311 63.5205L142.085 58.7457C144.214 56.6131 145.41 53.7231 145.41 50.7101C145.41 47.697 144.214 44.807 142.085 42.6745L132.403 32.9889C130.272 30.8586 127.381 29.662 124.368 29.662C121.354 29.662 118.464 30.8586 116.332 32.9889L111.554 37.7671L105.872 35.412V28.6593C105.868 25.6464 104.67 22.7579 102.539 20.6274C100.409 18.497 97.5203 17.2985 94.5073 17.2949H80.8116C77.7987 17.2985 74.9102 18.497 72.7798 20.6274C70.6493 22.7579 69.4509 25.6464 69.4473 28.6593V35.412L63.7617 37.7671L58.9869 32.9889C56.8552 30.8586 53.9649 29.662 50.9513 29.662C47.9376 29.662 45.0473 30.8586 42.9157 32.9889L33.2335 42.6745C31.1049 44.807 29.9094 47.697 29.9094 50.7101C29.9094 53.7231 31.1049 56.6131 33.2335 58.7457L38.0083 63.5205L35.6532 69.2061H28.9005C25.8876 69.2097 22.9991 70.4081 20.8687 72.5386C18.7382 74.669 17.5397 77.5575 17.5361 80.5704V94.2661C17.5397 97.2791 18.7382 100.168 20.8687 102.298C22.9991 104.428 25.8876 105.627 28.9005 105.631H35.6532L38.0083 111.313L33.2335 116.091C31.1049 118.223 29.9094 121.113 29.9094 124.126C29.9094 127.14 31.1049 130.03 33.2335 132.162L42.9157 141.844C45.0473 143.975 47.9376 145.171 50.9513 145.171C53.9649 145.171 56.8552 143.975 58.9869 141.844L63.7617 137.069L69.4473 139.421V146.177C69.4509 149.19 70.6493 152.079 72.7798 154.209C74.9102 156.34 77.7987 157.538 80.8116 157.542H94.5073C97.5203 157.538 100.409 156.34 102.539 154.209C104.67 152.079 105.868 149.19 105.872 146.177V139.421L111.554 137.069L116.332 141.844C118.464 143.975 121.354 145.171 124.368 145.171C127.381 145.171 130.272 143.975 132.403 141.844L142.085 132.162C144.214 130.03 145.41 127.14 145.41 124.126C145.41 121.113 144.214 118.223 142.085 116.091L137.311 111.313L139.666 105.631H146.418C149.431 105.627 152.32 104.428 154.45 102.298C156.581 100.168 157.779 97.2791 157.783 94.2661V80.5704C157.779 77.5575 156.581 74.669 154.45 72.5386C152.32 70.4081 149.431 69.2097 146.418 69.2061ZM150.075 94.2661C150.073 95.2354 149.688 96.1645 149.002 96.8498C148.317 97.5352 147.388 97.9211 146.418 97.9229H137.09C136.327 97.9226 135.582 98.1485 134.948 98.572C134.314 98.9954 133.82 99.5974 133.528 100.302L129.205 110.742C128.913 111.446 128.836 112.221 128.985 112.968C129.133 113.716 129.499 114.403 130.038 114.942L136.638 121.539C137.321 122.226 137.705 123.156 137.705 124.125C137.705 125.094 137.321 126.024 136.638 126.711L126.952 136.397C126.613 136.736 126.209 137.006 125.766 137.19C125.322 137.373 124.846 137.468 124.366 137.468C123.886 137.468 123.41 137.373 122.966 137.19C122.523 137.006 122.119 136.736 121.78 136.397L115.183 129.8C114.645 129.26 113.958 128.893 113.211 128.743C112.463 128.594 111.688 128.669 110.983 128.961L100.543 133.284C99.8386 133.575 99.2366 134.069 98.8132 134.703C98.3897 135.337 98.1638 136.083 98.1641 136.845V146.174C98.1623 147.143 97.7764 148.072 97.091 148.758C96.4057 149.443 95.4766 149.829 94.5073 149.831H80.8116C79.8424 149.829 78.9133 149.443 78.2279 148.758C77.5426 148.072 77.1567 147.143 77.1549 146.174V136.849C77.1551 136.086 76.9292 135.341 76.5058 134.707C76.0823 134.073 75.4804 133.579 74.776 133.287L64.3326 128.961C63.8668 128.765 63.3664 128.664 62.8611 128.665C61.8411 128.666 60.8632 129.072 60.1423 129.793L53.5426 136.393C53.2035 136.733 52.8007 137.003 52.3572 137.187C51.9137 137.371 51.4382 137.466 50.9581 137.466C50.4779 137.466 50.0024 137.371 49.5589 137.187C49.1154 137.003 48.7126 136.733 48.3736 136.393L38.688 126.711C38.0028 126.025 37.6179 125.095 37.6179 124.125C37.6179 123.155 38.0028 122.225 38.688 121.539L45.2844 114.942C45.8236 114.403 46.1908 113.717 46.3396 112.969C46.4884 112.221 46.4121 111.446 46.1204 110.742L41.7942 100.302C41.503 99.5977 41.0095 98.9958 40.3761 98.5724C39.7427 98.1489 38.9979 97.9229 38.236 97.9229H28.9005C27.9306 97.922 27.0007 97.5365 26.3146 96.851C25.6285 96.1656 25.2422 95.236 25.2404 94.2661V80.5704C25.2413 79.6003 25.6273 78.6702 26.3136 77.9845C26.9999 77.2989 27.9304 76.9137 28.9005 76.9137H38.2224C38.9842 76.9133 39.7288 76.687 40.3621 76.2636C40.9954 75.8402 41.489 75.2386 41.7806 74.5348L46.1068 64.0914C46.3987 63.3877 46.4751 62.6131 46.3263 61.8659C46.1774 61.1187 45.8101 60.4325 45.2708 59.8943L38.6744 53.2946C37.9892 52.6083 37.6043 51.6782 37.6043 50.7084C37.6043 49.7386 37.9892 48.8084 38.6744 48.1222L48.36 38.44C49.0456 37.755 49.9752 37.3702 50.9445 37.3702C51.9137 37.3702 52.8433 37.755 53.529 38.44L60.1287 45.0364C60.6674 45.5749 61.3536 45.9417 62.1006 46.0905C62.8476 46.2393 63.6219 46.1634 64.3258 45.8724L74.7692 41.5462C75.4733 41.255 76.0751 40.7615 76.4986 40.1281C76.9221 39.4947 77.1481 38.7499 77.1481 37.988V28.6593C77.149 27.6894 77.5345 26.7595 78.2199 26.0734C78.9054 25.3873 79.835 25.001 80.8048 24.9992H94.5005C95.4704 25.001 96.4 25.3873 97.0854 26.0734C97.7709 26.7595 98.1564 27.6894 98.1573 28.6593V37.988C98.1573 38.7499 98.3833 39.4947 98.8068 40.1281C99.2302 40.7615 99.8321 41.255 100.536 41.5462L110.976 45.8724C111.68 46.1641 112.456 46.2404 113.203 46.0916C113.951 45.9428 114.638 45.5756 115.177 45.0364L121.773 38.44C122.459 37.7547 123.389 37.3699 124.359 37.3699C125.329 37.3699 126.259 37.7547 126.945 38.44L136.631 48.1222C137.315 48.8093 137.698 49.7391 137.698 50.7084C137.698 51.6776 137.315 52.6074 136.631 53.2946L130.031 59.8943C129.492 60.4329 129.126 61.1192 128.978 61.8664C128.829 62.6136 128.906 63.388 129.199 64.0914L133.521 74.5348C133.814 75.2386 134.308 75.8401 134.942 76.2634C135.576 76.6868 136.321 76.913 137.083 76.9137H146.412C147.381 76.9146 148.311 77.3002 148.996 77.9857C149.682 78.6713 150.067 79.6009 150.068 80.5704L150.075 94.2661Z" fill="#12161C"/>
<path d="M146.418 69.2061H139.666L137.311 63.5205L142.085 58.7457C144.214 56.6131 145.41 53.7231 145.41 50.7101C145.41 47.697 144.214 44.807 142.085 42.6745L132.403 32.9889C130.272 30.8586 127.381 29.662 124.368 29.662C121.354 29.662 118.464 30.8586 116.332 32.9889L111.554 37.7671L105.872 35.412V28.6593C105.868 25.6464 104.67 22.7579 102.539 20.6274C100.409 18.497 97.5203 17.2985 94.5073 17.2949H80.8116C77.7987 17.2985 74.9102 18.497 72.7798 20.6274C70.6493 22.7579 69.4509 25.6464 69.4473 28.6593V35.412L63.7617 37.7671L58.9869 32.9889C56.8552 30.8586 53.9649 29.662 50.9513 29.662C47.9376 29.662 45.0473 30.8586 42.9157 32.9889L33.2335 42.6745C31.1049 44.807 29.9094 47.697 29.9094 50.7101C29.9094 53.7231 31.1049 56.6131 33.2335 58.7457L38.0083 63.5205L35.6532 69.2061H28.9005C25.8876 69.2097 22.9991 70.4081 20.8687 72.5386C18.7382 74.669 17.5397 77.5575 17.5361 80.5704V94.2661C17.5397 97.2791 18.7382 100.168 20.8687 102.298C22.9991 104.428 25.8876 105.627 28.9005 105.631H35.6532L38.0083 111.313L33.2335 116.091C31.1049 118.223 29.9094 121.113 29.9094 124.126C29.9094 127.14 31.1049 130.03 33.2335 132.162L42.9157 141.844C45.0473 143.975 47.9376 145.171 50.9513 145.171C53.9649 145.171 56.8552 143.975 58.9869 141.844L63.7617 137.069L69.4473 139.421V146.177C69.4509 149.19 70.6493 152.079 72.7798 154.209C74.9102 156.34 77.7987 157.538 80.8116 157.542H94.5073C97.5203 157.538 100.409 156.34 102.539 154.209C104.67 152.079 105.868 149.19 105.872 146.177V139.421L111.554 137.069L116.332 141.844C118.464 143.975 121.354 145.171 124.368 145.171C127.381 145.171 130.272 143.975 132.403 141.844L142.085 132.162C144.214 130.03 145.41 127.14 145.41 124.126C145.41 121.113 144.214 118.223 142.085 116.091L137.311 111.313L139.666 105.631H146.418C149.431 105.627 152.32 104.428 154.45 102.298C156.581 100.168 157.779 97.2791 157.783 94.2661V80.5704C157.779 77.5575 156.581 74.669 154.45 72.5386C152.32 70.4081 149.431 69.2097 146.418 69.2061ZM150.075 94.2661C150.073 95.2354 149.688 96.1645 149.002 96.8498C148.317 97.5352 147.388 97.9211 146.418 97.9229H137.09C136.327 97.9226 135.582 98.1485 134.948 98.572C134.314 98.9954 133.82 99.5974 133.528 100.302L129.205 110.742C128.913 111.446 128.836 112.221 128.985 112.968C129.133 113.716 129.499 114.403 130.038 114.942L136.638 121.539C137.321 122.226 137.705 123.156 137.705 124.125C137.705 125.094 137.321 126.024 136.638 126.711L126.952 136.397C126.613 136.736 126.209 137.006 125.766 137.19C125.322 137.373 124.846 137.468 124.366 137.468C123.886 137.468 123.41 137.373 122.966 137.19C122.523 137.006 122.119 136.736 121.78 136.397L115.183 129.8C114.645 129.26 113.958 128.893 113.211 128.743C112.463 128.594 111.688 128.669 110.983 128.961L100.543 133.284C99.8386 133.575 99.2366 134.069 98.8132 134.703C98.3897 135.337 98.1638 136.083 98.1641 136.845V146.174C98.1623 147.143 97.7764 148.072 97.091 148.758C96.4057 149.443 95.4766 149.829 94.5073 149.831H80.8116C79.8424 149.829 78.9133 149.443 78.2279 148.758C77.5426 148.072 77.1567 147.143 77.1549 146.174V136.849C77.1551 136.086 76.9292 135.341 76.5058 134.707C76.0823 134.073 75.4804 133.579 74.776 133.287L64.3326 128.961C63.8668 128.765 63.3664 128.664 62.8611 128.665C61.8411 128.666 60.8632 129.072 60.1423 129.793L53.5426 136.393C53.2035 136.733 52.8007 137.003 52.3572 137.187C51.9137 137.371 51.4382 137.466 50.9581 137.466C50.4779 137.466 50.0024 137.371 49.5589 137.187C49.1154 137.003 48.7126 136.733 48.3736 136.393L38.688 126.711C38.0028 126.025 37.6179 125.095 37.6179 124.125C37.6179 123.155 38.0028 122.225 38.688 121.539L45.2844 114.942C45.8236 114.403 46.1908 113.717 46.3396 112.969C46.4884 112.221 46.4121 111.446 46.1204 110.742L41.7942 100.302C41.503 99.5977 41.0095 98.9958 40.3761 98.5724C39.7427 98.1489 38.9979 97.9229 38.236 97.9229H28.9005C27.9306 97.922 27.0007 97.5365 26.3146 96.851C25.6285 96.1656 25.2422 95.236 25.2404 94.2661V80.5704C25.2413 79.6003 25.6273 78.6702 26.3136 77.9845C26.9999 77.2989 27.9304 76.9137 28.9005 76.9137H38.2224C38.9842 76.9133 39.7288 76.687 40.3621 76.2636C40.9954 75.8402 41.489 75.2386 41.7806 74.5348L46.1068 64.0914C46.3987 63.3877 46.4751 62.6131 46.3263 61.8659C46.1774 61.1187 45.8101 60.4325 45.2708 59.8943L38.6744 53.2946C37.9892 52.6083 37.6043 51.6782 37.6043 50.7084C37.6043 49.7386 37.9892 48.8084 38.6744 48.1222L48.36 38.44C49.0456 37.755 49.9752 37.3702 50.9445 37.3702C51.9137 37.3702 52.8433 37.755 53.529 38.44L60.1287 45.0364C60.6674 45.5749 61.3536 45.9417 62.1006 46.0905C62.8476 46.2393 63.6219 46.1634 64.3258 45.8724L74.7692 41.5462C75.4733 41.255 76.0751 40.7615 76.4986 40.1281C76.9221 39.4947 77.1481 38.7499 77.1481 37.988V28.6593C77.149 27.6894 77.5345 26.7595 78.2199 26.0734C78.9054 25.3873 79.835 25.001 80.8048 24.9992H94.5005C95.4704 25.001 96.4 25.3873 97.0854 26.0734C97.7709 26.7595 98.1564 27.6894 98.1573 28.6593V37.988C98.1573 38.7499 98.3833 39.4947 98.8068 40.1281C99.2302 40.7615 99.8321 41.255 100.536 41.5462L110.976 45.8724C111.68 46.1641 112.456 46.2404 113.203 46.0916C113.951 45.9428 114.638 45.5756 115.177 45.0364L121.773 38.44C122.459 37.7547 123.389 37.3699 124.359 37.3699C125.329 37.3699 126.259 37.7547 126.945 38.44L136.631 48.1222C137.315 48.8093 137.698 49.7391 137.698 50.7084C137.698 51.6776 137.315 52.6074 136.631 53.2946L130.031 59.8943C129.492 60.4329 129.126 61.1192 128.978 61.8664C128.829 62.6136 128.906 63.388 129.199 64.0914L133.521 74.5348C133.814 75.2386 134.308 75.8401 134.942 76.2634C135.576 76.6868 136.321 76.913 137.083 76.9137H146.412C147.381 76.9146 148.311 77.3002 148.996 77.9857C149.682 78.6713 150.067 79.6009 150.068 80.5704L150.075 94.2661Z" stroke="#12161C" stroke-width="2" mask="url(#path-2-outside-1_182_147)"/>
</svg>
