<svg width="175" height="175" viewBox="0 0 175 175" fill="none" xmlns="http://www.w3.org/2000/svg">
<path fill-rule="evenodd" clip-rule="evenodd" d="M164.059 165.8C165.949 165.8 167.487 167.306 167.539 169.183L167.54 169.28C167.54 171.202 165.984 172.76 164.059 172.76H14.421C12.4985 172.76 10.9399 171.203 10.9399 169.28C10.9399 167.358 12.4962 165.8 14.421 165.8H164.059ZM30.0799 110.12C38.7287 110.12 45.7399 117.129 45.7399 125.783V143.177C45.7399 151.828 38.7306 158.84 30.0799 158.84C21.4312 158.84 14.4199 151.832 14.4199 143.177V125.783C14.4199 117.133 21.4293 110.12 30.0799 110.12ZM68.3599 92.7202C77.0087 92.7202 84.0199 99.7323 84.0199 108.378V143.182C84.0199 151.83 77.0106 158.84 68.3599 158.84C59.7112 158.84 52.6999 151.828 52.6999 143.182V108.378C52.6999 99.7305 59.7093 92.7202 68.3599 92.7202ZM106.64 75.3202C115.289 75.3202 122.3 82.3285 122.3 90.9832V143.177C122.3 151.828 115.291 158.84 106.64 158.84C97.9912 158.84 90.9799 151.832 90.9799 143.177V90.9832C90.9799 82.3328 97.9893 75.3202 106.64 75.3202ZM144.92 40.5202C153.569 40.5202 160.58 47.5345 160.58 56.1788V143.182C160.58 151.83 153.571 158.84 144.92 158.84C136.271 158.84 129.26 151.826 129.26 143.182V56.1788C129.26 47.5308 136.269 40.5202 144.92 40.5202ZM30.0799 120.56C27.1964 120.56 24.8599 122.897 24.8599 125.783V143.177C24.8599 146.065 27.1955 148.4 30.0799 148.4C32.9635 148.4 35.2999 146.063 35.2999 143.177V125.783C35.2999 122.896 32.9643 120.56 30.0799 120.56ZM68.3599 103.16C65.4757 103.16 63.1399 105.496 63.1399 108.378V143.182C63.1399 146.063 65.4775 148.4 68.3599 148.4C71.2442 148.4 73.5799 146.065 73.5799 143.182V108.378C73.5799 105.498 71.2424 103.16 68.3599 103.16ZM106.64 85.7602C103.756 85.7602 101.42 88.0974 101.42 90.9832V143.177C101.42 146.065 103.756 148.4 106.64 148.4C109.523 148.4 111.86 146.063 111.86 143.177V90.9832C111.86 88.0958 109.524 85.7602 106.64 85.7602ZM144.92 50.9602C142.036 50.9602 139.7 53.296 139.7 56.1788V143.182C139.7 146.062 142.038 148.4 144.92 148.4C147.804 148.4 150.14 146.064 150.14 143.182V56.1788C150.14 53.2989 147.801 50.9602 144.92 50.9602ZM154.277 2.24023C156.164 2.24023 157.7 3.74551 157.752 5.62281L157.753 5.72023C157.753 5.97727 157.725 6.2278 157.673 6.46897C157.67 6.61417 157.659 6.76044 157.638 6.90706L157.719 7.04785L157.666 6.95767C157.656 6.9422 157.647 6.92679 157.637 6.91144C157.618 7.0481 157.59 7.18492 157.554 7.32145L152.148 27.4964C151.659 29.3197 149.808 30.414 147.981 29.9778L147.887 29.9539C146.03 29.4565 144.928 27.5498 145.425 25.695L148.41 14.5556L17.0585 94.3594C12.3319 97.2442 8.85194 90.9802 13.5785 88.3318L143.823 9.20023H133.39C131.502 9.20023 129.966 7.69496 129.915 5.81766L129.913 5.72023C129.913 3.79828 131.47 2.24023 133.39 2.24023H154.277Z" fill="#12161C"/>
</svg>
