<svg width="221" height="221" viewBox="0 0 221 221" fill="none" xmlns="http://www.w3.org/2000/svg">
<path d="M111.489 63.3497C110.546 63.1263 109.556 63.228 108.679 63.6382C107.802 64.0484 107.089 64.743 106.657 65.6093L80.8754 117.172C80.5479 117.827 80.3933 118.555 80.4262 119.287C80.4592 120.018 80.6786 120.73 81.0637 121.353C81.4488 121.976 81.9868 122.49 82.6265 122.847C83.2662 123.203 83.9865 123.391 84.719 123.391H106.203V153.469C106.203 154.437 106.53 155.376 107.131 156.135C107.732 156.894 108.571 157.428 109.513 157.651C110.455 157.873 111.445 157.771 112.322 157.361C113.198 156.95 113.911 156.256 114.344 155.391L140.125 103.828C140.453 103.173 140.607 102.445 140.574 101.713C140.541 100.981 140.322 100.27 139.937 99.6472C139.552 99.0242 139.014 98.5099 138.374 98.1532C137.734 97.7965 137.014 97.6093 136.281 97.6093H114.797V67.5312C114.797 66.5634 114.471 65.6239 113.87 64.8649C113.27 64.106 112.43 63.5721 111.489 63.3497Z" fill="#12161C"/>
<path d="M195.532 94.2181C195.087 93.7725 194.558 93.4191 193.976 93.1779C193.394 92.9368 192.77 92.8127 192.14 92.8127C191.511 92.8127 190.887 92.9368 190.305 93.1779C189.723 93.4191 189.194 93.7725 188.749 94.2181L183.258 99.7087C178.023 64.2511 147.391 36.9537 110.501 36.9532C93.8939 36.8894 77.7585 42.4737 64.7436 52.7893C51.7286 63.1049 42.6074 77.539 38.8774 93.722C38.5885 94.9605 38.8032 96.263 39.4745 97.3432C40.1459 98.4235 41.219 99.1929 42.4577 99.4821C43.6964 99.7713 44.9992 99.5565 46.0796 98.8851C47.16 98.2137 47.9294 97.1406 48.2185 95.9019L48.2188 95.9006C51.4634 81.8303 59.3952 69.2812 70.7121 60.313C82.029 51.3448 96.0586 46.4905 110.498 46.5469H110.5C145.763 46.5469 174.453 75.2367 174.453 110.5C174.453 111.449 174.734 112.376 175.261 113.165C175.788 113.954 176.538 114.569 177.414 114.932C178.291 115.295 179.255 115.39 180.186 115.204C181.116 115.019 181.971 114.562 182.641 113.891L195.532 101.001C195.978 100.556 196.331 100.027 196.572 99.445C196.813 98.8631 196.937 98.2393 196.937 97.6094C196.937 96.9795 196.813 96.3558 196.572 95.7739C196.331 95.192 195.978 94.6633 195.532 94.2181ZM195.532 94.2181L195.179 94.5715L195.532 94.2179C195.532 94.2179 195.532 94.218 195.532 94.2181Z" fill="#12161C" stroke="#12161C"/>
<path d="M172.781 125.1L172.782 125.099C172.924 124.485 173.185 123.905 173.552 123.392C173.919 122.879 174.384 122.444 174.919 122.112C175.455 121.779 176.051 121.555 176.673 121.454C177.295 121.352 177.93 121.374 178.544 121.519C178.544 121.519 178.544 121.519 178.545 121.519L172.781 125.1ZM172.781 125.1C169.536 139.17 161.604 151.718 150.288 160.686C138.971 169.655 124.942 174.509 110.502 174.453H110.5C75.237 174.453 46.5472 145.763 46.5472 110.5C46.5472 109.551 46.2659 108.624 45.7388 107.835C45.2117 107.046 44.4626 106.432 43.5861 106.069C42.7096 105.706 41.7452 105.611 40.8147 105.796C39.8843 105.981 39.0297 106.438 38.3589 107.109L172.781 125.1Z" fill="#12161C" stroke="#12161C"/>
</svg>
