<svg width="175" height="174" viewBox="0 0 175 174" fill="none" xmlns="http://www.w3.org/2000/svg">
<g clip-path="url(#clip0_182_159)">
<path d="M53.1665 86.5001H43.9998C42.5853 86.5001 41.2288 87.062 40.2286 88.0622C39.2284 89.0624 38.6665 90.4189 38.6665 91.8334C38.6665 93.2479 39.2284 94.6045 40.2286 95.6047C41.2288 96.6049 42.5854 97.1667 43.9998 97.1667H53.1665V105.833H43.9998C42.5853 105.833 41.2288 106.395 40.2286 107.396C39.2284 108.396 38.6665 109.752 38.6665 111.167C38.6665 112.581 39.2284 113.938 40.2286 114.938C41.2288 115.938 42.5853 116.5 43.9998 116.5H53.1665V149.833C53.1665 151.248 53.7284 152.604 54.7286 153.605C55.7288 154.605 57.0854 155.167 58.4998 155.167C59.9143 155.167 61.2709 154.605 62.2711 153.605C63.2713 152.604 63.8332 151.248 63.8332 149.833V116.5H106.833C108.248 116.5 109.604 115.938 110.604 114.938C111.605 113.938 112.167 112.581 112.167 111.167C112.167 109.752 111.605 108.396 110.604 107.396C109.604 106.395 108.248 105.833 106.833 105.833H63.8332V97.1667H99.9154C110.572 97.4282 120.897 93.4548 128.63 86.117C136.363 78.7778 140.872 68.6717 141.166 58.0139L141.167 58.0001L141.166 57.9863C140.872 47.3285 136.363 37.2224 128.63 29.8832C120.897 22.5454 110.572 18.5719 99.9154 18.8334H58.4998C57.0854 18.8334 55.7288 19.3953 54.7286 20.3955C53.7284 21.3957 53.1665 22.7523 53.1665 24.1668V86.5001ZM99.9215 86.5001H63.8332V29.5001H99.9215H99.9293L99.9371 29.4998C107.765 29.2557 115.371 32.1173 121.097 37.4601C126.818 42.7987 130.197 50.1817 130.499 58.0005C130.21 65.8233 126.834 73.2135 121.11 78.5546C115.382 83.8999 107.769 86.7571 99.9379 86.5004L99.9297 86.5001H99.9215Z" fill="#12161C" stroke="#12161C"/>
</g>
<defs>
<clipPath id="clip0_182_159">
<rect width="174" height="174" fill="white" transform="translate(0.5)"/>
</clipPath>
</defs>
</svg>
