<svg width="175" height="175" viewBox="0 0 175 175" fill="none" xmlns="http://www.w3.org/2000/svg">
<path d="M30.4063 11.375C26.1045 11.375 21.8994 12.6506 18.3226 15.0405C14.7458 17.4305 11.9581 20.8273 10.3119 24.8016C8.66567 28.7759 8.23495 33.1491 9.07418 37.3682C9.91341 41.5873 11.9849 45.4628 15.0267 48.5046C18.0685 51.5464 21.944 53.6179 26.163 54.4571C30.3821 55.2963 34.7553 54.8656 38.7296 53.2194C42.7039 51.5732 46.1008 48.7854 48.4907 45.2086C50.8806 41.6319 52.1563 37.4267 52.1563 33.125C52.1498 27.3585 49.8562 21.8301 45.7787 17.7526C41.7012 13.6751 36.1727 11.3815 30.4063 11.375ZM30.4063 44C28.2554 44 26.1528 43.3622 24.3644 42.1672C22.5761 40.9723 21.1822 39.2738 20.3591 37.2867C19.536 35.2995 19.3206 33.1129 19.7402 31.0034C20.1598 28.8939 21.1956 26.9561 22.7165 25.4352C24.2374 23.9143 26.1751 22.8786 28.2847 22.459C30.3942 22.0393 32.5808 22.2547 34.5679 23.0778C36.5551 23.9009 38.2535 25.2948 39.4485 27.0832C40.6435 28.8716 41.2813 30.9741 41.2813 33.125C41.278 36.0082 40.1312 38.7725 38.0925 40.8112C36.0537 42.85 33.2895 43.9968 30.4063 44Z" fill="#12161C"/>
<path d="M87.5 11.375C83.1983 11.375 78.9931 12.6506 75.4164 15.0405C71.8396 17.4305 69.0518 20.8273 67.4056 24.8016C65.7594 28.7759 65.3287 33.1491 66.1679 37.3682C67.0072 41.5873 69.0786 45.4628 72.1204 48.5046C75.1622 51.5464 79.0377 53.6179 83.2568 54.4571C87.4759 55.2963 91.8491 54.8656 95.8234 53.2194C99.7977 51.5732 103.195 48.7854 105.584 45.2086C107.974 41.6319 109.25 37.4267 109.25 33.125C109.244 27.3585 106.95 21.8301 102.872 17.7526C98.7949 13.6751 93.2665 11.3815 87.5 11.375ZM87.5 44C85.3491 44 83.2466 43.3622 81.4582 42.1672C79.6698 40.9723 78.2759 39.2738 77.4528 37.2867C76.6297 35.2995 76.4144 33.1129 76.834 31.0034C77.2536 28.8939 78.2893 26.9561 79.8102 25.4352C81.3311 23.9143 83.2689 22.8786 85.3784 22.459C87.4879 22.0393 89.6746 22.2547 91.6617 23.0778C93.6488 23.9009 95.3473 25.2948 96.5422 27.0832C97.7372 28.8716 98.375 30.9741 98.375 33.125C98.3718 36.0082 97.225 38.7725 95.1862 40.8112C93.1475 42.85 90.3832 43.9968 87.5 44Z" fill="#12161C"/>
<path d="M144.594 54.875C148.895 54.875 153.101 53.5994 156.677 51.2095C160.254 48.8196 163.042 45.4227 164.688 41.4484C166.334 37.4741 166.765 33.1009 165.926 28.8818C165.087 24.6627 163.015 20.7872 159.973 17.7454C156.932 14.7036 153.056 12.6322 148.837 11.7929C144.618 10.9537 140.245 11.3844 136.27 13.0306C132.296 14.6768 128.899 17.4646 126.509 21.0414C124.119 24.6181 122.844 28.8233 122.844 33.125C122.85 38.8915 125.144 44.4199 129.221 48.4974C133.299 52.5749 138.827 54.8685 144.594 54.875ZM144.594 22.25C146.745 22.25 148.847 22.8878 150.636 24.0828C152.424 25.2777 153.818 26.9762 154.641 28.9633C155.464 30.9505 155.679 33.1371 155.26 35.2466C154.84 37.3562 153.804 39.2939 152.284 40.8148C150.763 42.3357 148.825 43.3714 146.715 43.791C144.606 44.2107 142.419 43.9953 140.432 43.1722C138.445 42.3491 136.746 40.9552 135.552 39.1668C134.357 37.3785 133.719 35.2759 133.719 33.125C133.722 30.2418 134.869 27.4776 136.908 25.4388C138.946 23.4 141.711 22.2532 144.594 22.25Z" fill="#12161C"/>
<path d="M30.4063 65.75C26.1045 65.75 21.8994 67.0256 18.3226 69.4155C14.7458 71.8055 11.9581 75.2023 10.3119 79.1766C8.66567 83.1509 8.23495 87.5241 9.07418 91.7432C9.91341 95.9623 11.9849 99.8378 15.0267 102.88C18.0685 105.921 21.944 107.993 26.163 108.832C30.3821 109.671 34.7553 109.241 38.7296 107.594C42.7039 105.948 46.1008 103.16 48.4907 99.5836C50.8806 96.0069 52.1563 91.8017 52.1563 87.5C52.1498 81.7335 49.8562 76.2051 45.7787 72.1276C41.7012 68.0501 36.1727 65.7565 30.4063 65.75ZM30.4063 98.375C28.2554 98.375 26.1528 97.7372 24.3644 96.5422C22.5761 95.3473 21.1822 93.6488 20.3591 91.6617C19.536 89.6745 19.3206 87.4879 19.7402 85.3784C20.1598 83.2689 21.1956 81.3311 22.7165 79.8102C24.2374 78.2893 26.1751 77.2536 28.2847 76.834C30.3942 76.4143 32.5808 76.6297 34.5679 77.4528C36.5551 78.2759 38.2535 79.6698 39.4485 81.4582C40.6435 83.2466 41.2813 85.3491 41.2813 87.5C41.278 90.3832 40.1312 93.1474 38.0925 95.1862C36.0537 97.225 33.2895 98.3718 30.4063 98.375Z" fill="#12161C"/>
<path d="M87.5 65.75C83.1983 65.75 78.9931 67.0256 75.4164 69.4155C71.8396 71.8055 69.0518 75.2023 67.4056 79.1766C65.7594 83.1509 65.3287 87.5241 66.1679 91.7432C67.0072 95.9623 69.0786 99.8378 72.1204 102.88C75.1622 105.921 79.0377 107.993 83.2568 108.832C87.4759 109.671 91.8491 109.241 95.8234 107.594C99.7977 105.948 103.195 103.16 105.584 99.5836C107.974 96.0069 109.25 91.8017 109.25 87.5C109.244 81.7335 106.95 76.2051 102.872 72.1276C98.7949 68.0501 93.2665 65.7565 87.5 65.75ZM87.5 98.375C85.3491 98.375 83.2466 97.7372 81.4582 96.5422C79.6698 95.3473 78.2759 93.6488 77.4528 91.6617C76.6297 89.6745 76.4144 87.4879 76.834 85.3784C77.2536 83.2689 78.2893 81.3311 79.8102 79.8102C81.3311 78.2893 83.2689 77.2536 85.3784 76.834C87.4879 76.4143 89.6746 76.6297 91.6617 77.4528C93.6488 78.2759 95.3473 79.6698 96.5422 81.4582C97.7372 83.2466 98.375 85.3491 98.375 87.5C98.3718 90.3832 97.225 93.1474 95.1862 95.1862C93.1475 97.225 90.3832 98.3718 87.5 98.375Z" fill="#12161C"/>
<path d="M144.594 65.75C140.292 65.75 136.087 67.0256 132.51 69.4155C128.933 71.8055 126.146 75.2023 124.499 79.1766C122.853 83.1509 122.422 87.5241 123.262 91.7432C124.101 95.9623 126.172 99.8378 129.214 102.88C132.256 105.921 136.131 107.993 140.351 108.832C144.57 109.671 148.943 109.241 152.917 107.594C156.891 105.948 160.288 103.16 162.678 99.5836C165.068 96.0069 166.344 91.8017 166.344 87.5C166.337 81.7335 164.044 76.2051 159.966 72.1276C155.889 68.0501 150.36 65.7565 144.594 65.75ZM144.594 98.375C142.443 98.375 140.34 97.7372 138.552 96.5422C136.764 95.3473 135.37 93.6488 134.547 91.6617C133.723 89.6745 133.508 87.4879 133.928 85.3784C134.347 83.2689 135.383 81.3311 136.904 79.8102C138.425 78.2893 140.363 77.2536 142.472 76.834C144.582 76.4143 146.768 76.6297 148.755 77.4528C150.743 78.2759 152.441 79.6698 153.636 81.4582C154.831 83.2466 155.469 85.3491 155.469 87.5C155.466 90.3832 154.319 93.1474 152.28 95.1862C150.241 97.225 147.477 98.3718 144.594 98.375Z" fill="#12161C"/>
<path d="M30.4063 120.125C26.1045 120.125 21.8994 121.401 18.3226 123.791C14.7458 126.18 11.9581 129.577 10.3119 133.552C8.66567 137.526 8.23495 141.899 9.07418 146.118C9.91341 150.337 11.9849 154.213 15.0267 157.255C18.0685 160.296 21.944 162.368 26.163 163.207C30.3821 164.046 34.7553 163.616 38.7296 161.969C42.7039 160.323 46.1008 157.535 48.4907 153.959C50.8806 150.382 52.1563 146.177 52.1563 141.875C52.1498 136.109 49.8562 130.58 45.7787 126.503C41.7012 122.425 36.1727 120.131 30.4063 120.125ZM30.4063 152.75C28.2554 152.75 26.1528 152.112 24.3644 150.917C22.5761 149.722 21.1822 148.024 20.3591 146.037C19.536 144.05 19.3206 141.863 19.7402 139.753C20.1598 137.644 21.1956 135.706 22.7165 134.185C24.2374 132.664 26.1751 131.629 28.2847 131.209C30.3942 130.789 32.5808 131.005 34.5679 131.828C36.5551 132.651 38.2535 134.045 39.4485 135.833C40.6435 137.622 41.2813 139.724 41.2813 141.875C41.278 144.758 40.1312 147.522 38.0925 149.561C36.0537 151.6 33.2895 152.747 30.4063 152.75Z" fill="#12161C"/>
<path d="M87.5 120.125C83.1983 120.125 78.9931 121.401 75.4164 123.791C71.8396 126.18 69.0518 129.577 67.4056 133.552C65.7594 137.526 65.3287 141.899 66.1679 146.118C67.0072 150.337 69.0786 154.213 72.1204 157.255C75.1622 160.296 79.0377 162.368 83.2568 163.207C87.4759 164.046 91.8491 163.616 95.8234 161.969C99.7977 160.323 103.195 157.535 105.584 153.959C107.974 150.382 109.25 146.177 109.25 141.875C109.244 136.109 106.95 130.58 102.872 126.503C98.7949 122.425 93.2665 120.131 87.5 120.125ZM87.5 152.75C85.3491 152.75 83.2466 152.112 81.4582 150.917C79.6698 149.722 78.2759 148.024 77.4528 146.037C76.6297 144.05 76.4144 141.863 76.834 139.753C77.2536 137.644 78.2893 135.706 79.8102 134.185C81.3311 132.664 83.2689 131.629 85.3784 131.209C87.4879 130.789 89.6746 131.005 91.6617 131.828C93.6488 132.651 95.3473 134.045 96.5422 135.833C97.7372 137.622 98.375 139.724 98.375 141.875C98.3718 144.758 97.225 147.522 95.1862 149.561C93.1475 151.6 90.3832 152.747 87.5 152.75Z" fill="#12161C"/>
<path d="M144.594 120.125C140.292 120.125 136.087 121.401 132.51 123.791C128.933 126.18 126.146 129.577 124.499 133.552C122.853 137.526 122.422 141.899 123.262 146.118C124.101 150.337 126.172 154.213 129.214 157.255C132.256 160.296 136.131 162.368 140.351 163.207C144.57 164.046 148.943 163.616 152.917 161.969C156.891 160.323 160.288 157.535 162.678 153.959C165.068 150.382 166.344 146.177 166.344 141.875C166.337 136.109 164.044 130.58 159.966 126.503C155.889 122.425 150.36 120.131 144.594 120.125ZM144.594 152.75C142.443 152.75 140.34 152.112 138.552 150.917C136.764 149.722 135.37 148.024 134.547 146.037C133.723 144.05 133.508 141.863 133.928 139.753C134.347 137.644 135.383 135.706 136.904 134.185C138.425 132.664 140.363 131.629 142.472 131.209C144.582 130.789 146.768 131.005 148.755 131.828C150.743 132.651 152.441 134.045 153.636 135.833C154.831 137.622 155.469 139.724 155.469 141.875C155.466 144.758 154.319 147.522 152.28 149.561C150.241 151.6 147.477 152.747 144.594 152.75Z" fill="#12161C"/>
</svg>
