<svg width="185" height="185" viewBox="0 0 185 185" fill="none" xmlns="http://www.w3.org/2000/svg">
<mask id="path-1-outside-1_182_162" maskUnits="userSpaceOnUse" x="50.1846" y="2.31689" width="103" height="60" fill="black">
<rect fill="white" x="50.1846" y="2.31689" width="103" height="60"/>
<path d="M149.29 59.5471C148.907 59.5471 148.539 59.3948 148.268 59.1238C147.997 58.8527 147.845 58.4851 147.845 58.1018V49.6034C147.845 49.4705 147.792 49.343 147.698 49.2491C147.604 49.1551 147.477 49.1023 147.344 49.1023H139.636C139.291 49.1061 138.957 48.9853 138.695 48.7622C138.433 48.5391 138.261 48.2286 138.21 47.8882C137.279 42.1483 135.022 36.7046 131.619 31.9898C131.406 31.7047 131.305 31.3518 131.333 30.9972C131.361 30.6426 131.518 30.3104 131.773 30.0627L137.246 24.5513C137.337 24.4548 137.387 24.3273 137.387 24.1948C137.387 24.0623 137.337 23.9348 137.246 23.8382L131.272 17.8257C131.229 17.7765 131.175 17.7371 131.115 17.7101C131.056 17.6831 130.991 17.6692 130.925 17.6692C130.86 17.6692 130.795 17.6831 130.735 17.7101C130.675 17.7371 130.622 17.7765 130.578 17.8257L125.067 23.395C124.821 23.6552 124.487 23.8135 124.13 23.8385C123.773 23.8635 123.419 23.7533 123.14 23.5299C118.47 20.1402 113.071 17.8898 107.376 16.9586C107.039 16.9001 106.733 16.7254 106.511 16.465C106.29 16.2045 106.166 15.8746 106.162 15.5325V7.70856C106.162 7.57568 106.109 7.44823 106.015 7.35427C105.921 7.26031 105.794 7.20752 105.661 7.20752H97.2012C97.0684 7.20752 96.9409 7.26031 96.847 7.35427C96.753 7.44823 96.7002 7.57568 96.7002 7.70856V15.5518C96.704 15.896 96.5832 16.2299 96.3601 16.492C96.1369 16.7541 95.8265 16.9267 95.4861 16.9778C89.7797 17.8989 84.368 20.1428 79.684 23.5299C79.4045 23.7533 79.0512 23.8635 78.6942 23.8385C78.3372 23.8135 78.0027 23.6552 77.757 23.395L72.3419 17.8836C72.2419 17.7905 72.1121 17.7359 71.9757 17.7294C71.9105 17.7303 71.8461 17.7444 71.7865 17.7709C71.7268 17.7974 71.6732 17.8357 71.6288 17.8836L65.6356 23.8961C65.5448 23.9926 65.4943 24.1201 65.4943 24.2526C65.4943 24.3851 65.5448 24.5126 65.6356 24.6091L71.1278 30.1398C71.3869 30.3853 71.546 30.718 71.5745 31.0738C71.603 31.4296 71.4988 31.7833 71.282 32.0669C67.8826 36.7747 65.6321 42.2128 64.7106 47.9461C64.6521 48.2831 64.4775 48.5891 64.217 48.8108C63.9565 49.0326 63.6266 49.1562 63.2846 49.1601H55.5762C55.4434 49.1601 55.3159 49.2129 55.2219 49.3069C55.128 49.4008 55.0752 49.5283 55.0752 49.6612V58.1596C55.0752 58.5429 54.9229 58.9105 54.6519 59.1816C54.3808 59.4526 54.0132 59.6049 53.6299 59.6049C53.2466 59.6049 52.8789 59.4526 52.6079 59.1816C52.3368 58.9105 52.1846 58.5429 52.1846 58.1596V49.6034C52.1947 48.7138 52.5538 47.8639 53.1846 47.2367C53.8154 46.6095 54.6674 46.2552 55.557 46.2502H62.0705C63.1062 40.9214 65.2033 35.8555 68.2372 31.3539L63.5929 26.6518C63.2777 26.3368 63.0276 25.9628 62.857 25.5511C62.6864 25.1395 62.5986 24.6982 62.5986 24.2526C62.5986 23.8069 62.6864 23.3657 62.857 22.954C63.0276 22.5423 63.2777 22.1683 63.5929 21.8534L69.5861 15.8409C69.8987 15.5245 70.2707 15.2731 70.6808 15.1011C71.0909 14.9292 71.531 14.84 71.9757 14.8388C72.8797 14.8404 73.7461 15.2008 74.3846 15.8409L79.0096 20.4851C83.4763 17.4559 88.5112 15.3646 93.8096 14.3377V7.70856C93.8096 6.80904 94.1669 5.94635 94.803 5.31029C95.439 4.67423 96.3017 4.31689 97.2012 4.31689H105.661C106.561 4.31689 107.423 4.67423 108.059 5.31029C108.695 5.94635 109.053 6.80904 109.053 7.70856V14.3185C114.361 15.343 119.404 17.4415 123.872 20.4851L128.497 15.8409C129.135 15.2008 130.002 14.8404 130.906 14.8388C131.351 14.84 131.791 14.9292 132.201 15.1011C132.611 15.2731 132.983 15.5245 133.296 15.8409L139.269 21.8534C139.585 22.1683 139.835 22.5423 140.005 22.954C140.176 23.3657 140.264 23.8069 140.264 24.2526C140.264 24.6982 140.176 25.1395 140.005 25.5511C139.835 25.9628 139.585 26.3368 139.269 26.6518L134.644 31.2961C137.7 35.8094 139.805 40.8974 140.83 46.2502H147.344C147.789 46.2502 148.23 46.338 148.642 46.5084C149.053 46.6788 149.427 46.9287 149.742 47.2436C150.057 47.5586 150.307 47.9325 150.477 48.344C150.648 48.7555 150.736 49.1965 150.736 49.6419V58.1403C150.721 58.5153 150.563 58.8704 150.294 59.1321C150.025 59.3939 149.666 59.5425 149.29 59.5471Z"/>
</mask>
<path d="M149.29 59.5471C148.907 59.5471 148.539 59.3948 148.268 59.1238C147.997 58.8527 147.845 58.4851 147.845 58.1018V49.6034C147.845 49.4705 147.792 49.343 147.698 49.2491C147.604 49.1551 147.477 49.1023 147.344 49.1023H139.636C139.291 49.1061 138.957 48.9853 138.695 48.7622C138.433 48.5391 138.261 48.2286 138.21 47.8882C137.279 42.1483 135.022 36.7046 131.619 31.9898C131.406 31.7047 131.305 31.3518 131.333 30.9972C131.361 30.6426 131.518 30.3104 131.773 30.0627L137.246 24.5513C137.337 24.4548 137.387 24.3273 137.387 24.1948C137.387 24.0623 137.337 23.9348 137.246 23.8382L131.272 17.8257C131.229 17.7765 131.175 17.7371 131.115 17.7101C131.056 17.6831 130.991 17.6692 130.925 17.6692C130.86 17.6692 130.795 17.6831 130.735 17.7101C130.675 17.7371 130.622 17.7765 130.578 17.8257L125.067 23.395C124.821 23.6552 124.487 23.8135 124.13 23.8385C123.773 23.8635 123.419 23.7533 123.14 23.5299C118.47 20.1402 113.071 17.8898 107.376 16.9586C107.039 16.9001 106.733 16.7254 106.511 16.465C106.29 16.2045 106.166 15.8746 106.162 15.5325V7.70856C106.162 7.57568 106.109 7.44823 106.015 7.35427C105.921 7.26031 105.794 7.20752 105.661 7.20752H97.2012C97.0684 7.20752 96.9409 7.26031 96.847 7.35427C96.753 7.44823 96.7002 7.57568 96.7002 7.70856V15.5518C96.704 15.896 96.5832 16.2299 96.3601 16.492C96.1369 16.7541 95.8265 16.9267 95.4861 16.9778C89.7797 17.8989 84.368 20.1428 79.684 23.5299C79.4045 23.7533 79.0512 23.8635 78.6942 23.8385C78.3372 23.8135 78.0027 23.6552 77.757 23.395L72.3419 17.8836C72.2419 17.7905 72.1121 17.7359 71.9757 17.7294C71.9105 17.7303 71.8461 17.7444 71.7865 17.7709C71.7268 17.7974 71.6732 17.8357 71.6288 17.8836L65.6356 23.8961C65.5448 23.9926 65.4943 24.1201 65.4943 24.2526C65.4943 24.3851 65.5448 24.5126 65.6356 24.6091L71.1278 30.1398C71.3869 30.3853 71.546 30.718 71.5745 31.0738C71.603 31.4296 71.4988 31.7833 71.282 32.0669C67.8826 36.7747 65.6321 42.2128 64.7106 47.9461C64.6521 48.2831 64.4775 48.5891 64.217 48.8108C63.9565 49.0326 63.6266 49.1562 63.2846 49.1601H55.5762C55.4434 49.1601 55.3159 49.2129 55.2219 49.3069C55.128 49.4008 55.0752 49.5283 55.0752 49.6612V58.1596C55.0752 58.5429 54.9229 58.9105 54.6519 59.1816C54.3808 59.4526 54.0132 59.6049 53.6299 59.6049C53.2466 59.6049 52.8789 59.4526 52.6079 59.1816C52.3368 58.9105 52.1846 58.5429 52.1846 58.1596V49.6034C52.1947 48.7138 52.5538 47.8639 53.1846 47.2367C53.8154 46.6095 54.6674 46.2552 55.557 46.2502H62.0705C63.1062 40.9214 65.2033 35.8555 68.2372 31.3539L63.5929 26.6518C63.2777 26.3368 63.0276 25.9628 62.857 25.5511C62.6864 25.1395 62.5986 24.6982 62.5986 24.2526C62.5986 23.8069 62.6864 23.3657 62.857 22.954C63.0276 22.5423 63.2777 22.1683 63.5929 21.8534L69.5861 15.8409C69.8987 15.5245 70.2707 15.2731 70.6808 15.1011C71.0909 14.9292 71.531 14.84 71.9757 14.8388C72.8797 14.8404 73.7461 15.2008 74.3846 15.8409L79.0096 20.4851C83.4763 17.4559 88.5112 15.3646 93.8096 14.3377V7.70856C93.8096 6.80904 94.1669 5.94635 94.803 5.31029C95.439 4.67423 96.3017 4.31689 97.2012 4.31689H105.661C106.561 4.31689 107.423 4.67423 108.059 5.31029C108.695 5.94635 109.053 6.80904 109.053 7.70856V14.3185C114.361 15.343 119.404 17.4415 123.872 20.4851L128.497 15.8409C129.135 15.2008 130.002 14.8404 130.906 14.8388C131.351 14.84 131.791 14.9292 132.201 15.1011C132.611 15.2731 132.983 15.5245 133.296 15.8409L139.269 21.8534C139.585 22.1683 139.835 22.5423 140.005 22.954C140.176 23.3657 140.264 23.8069 140.264 24.2526C140.264 24.6982 140.176 25.1395 140.005 25.5511C139.835 25.9628 139.585 26.3368 139.269 26.6518L134.644 31.2961C137.7 35.8094 139.805 40.8974 140.83 46.2502H147.344C147.789 46.2502 148.23 46.338 148.642 46.5084C149.053 46.6788 149.427 46.9287 149.742 47.2436C150.057 47.5586 150.307 47.9325 150.477 48.344C150.648 48.7555 150.736 49.1965 150.736 49.6419V58.1403C150.721 58.5153 150.563 58.8704 150.294 59.1321C150.025 59.3939 149.666 59.5425 149.29 59.5471Z" fill="#12161C"/>
<path d="M149.29 59.5471C148.907 59.5471 148.539 59.3948 148.268 59.1238C147.997 58.8527 147.845 58.4851 147.845 58.1018V49.6034C147.845 49.4705 147.792 49.343 147.698 49.2491C147.604 49.1551 147.477 49.1023 147.344 49.1023H139.636C139.291 49.1061 138.957 48.9853 138.695 48.7622C138.433 48.5391 138.261 48.2286 138.21 47.8882C137.279 42.1483 135.022 36.7046 131.619 31.9898C131.406 31.7047 131.305 31.3518 131.333 30.9972C131.361 30.6426 131.518 30.3104 131.773 30.0627L137.246 24.5513C137.337 24.4548 137.387 24.3273 137.387 24.1948C137.387 24.0623 137.337 23.9348 137.246 23.8382L131.272 17.8257C131.229 17.7765 131.175 17.7371 131.115 17.7101C131.056 17.6831 130.991 17.6692 130.925 17.6692C130.86 17.6692 130.795 17.6831 130.735 17.7101C130.675 17.7371 130.622 17.7765 130.578 17.8257L125.067 23.395C124.821 23.6552 124.487 23.8135 124.13 23.8385C123.773 23.8635 123.419 23.7533 123.14 23.5299C118.47 20.1402 113.071 17.8898 107.376 16.9586C107.039 16.9001 106.733 16.7254 106.511 16.465C106.29 16.2045 106.166 15.8746 106.162 15.5325V7.70856C106.162 7.57568 106.109 7.44823 106.015 7.35427C105.921 7.26031 105.794 7.20752 105.661 7.20752H97.2012C97.0684 7.20752 96.9409 7.26031 96.847 7.35427C96.753 7.44823 96.7002 7.57568 96.7002 7.70856V15.5518C96.704 15.896 96.5832 16.2299 96.3601 16.492C96.1369 16.7541 95.8265 16.9267 95.4861 16.9778C89.7797 17.8989 84.368 20.1428 79.684 23.5299C79.4045 23.7533 79.0512 23.8635 78.6942 23.8385C78.3372 23.8135 78.0027 23.6552 77.757 23.395L72.3419 17.8836C72.2419 17.7905 72.1121 17.7359 71.9757 17.7294C71.9105 17.7303 71.8461 17.7444 71.7865 17.7709C71.7268 17.7974 71.6732 17.8357 71.6288 17.8836L65.6356 23.8961C65.5448 23.9926 65.4943 24.1201 65.4943 24.2526C65.4943 24.3851 65.5448 24.5126 65.6356 24.6091L71.1278 30.1398C71.3869 30.3853 71.546 30.718 71.5745 31.0738C71.603 31.4296 71.4988 31.7833 71.282 32.0669C67.8826 36.7747 65.6321 42.2128 64.7106 47.9461C64.6521 48.2831 64.4775 48.5891 64.217 48.8108C63.9565 49.0326 63.6266 49.1562 63.2846 49.1601H55.5762C55.4434 49.1601 55.3159 49.2129 55.2219 49.3069C55.128 49.4008 55.0752 49.5283 55.0752 49.6612V58.1596C55.0752 58.5429 54.9229 58.9105 54.6519 59.1816C54.3808 59.4526 54.0132 59.6049 53.6299 59.6049C53.2466 59.6049 52.8789 59.4526 52.6079 59.1816C52.3368 58.9105 52.1846 58.5429 52.1846 58.1596V49.6034C52.1947 48.7138 52.5538 47.8639 53.1846 47.2367C53.8154 46.6095 54.6674 46.2552 55.557 46.2502H62.0705C63.1062 40.9214 65.2033 35.8555 68.2372 31.3539L63.5929 26.6518C63.2777 26.3368 63.0276 25.9628 62.857 25.5511C62.6864 25.1395 62.5986 24.6982 62.5986 24.2526C62.5986 23.8069 62.6864 23.3657 62.857 22.954C63.0276 22.5423 63.2777 22.1683 63.5929 21.8534L69.5861 15.8409C69.8987 15.5245 70.2707 15.2731 70.6808 15.1011C71.0909 14.9292 71.531 14.84 71.9757 14.8388C72.8797 14.8404 73.7461 15.2008 74.3846 15.8409L79.0096 20.4851C83.4763 17.4559 88.5112 15.3646 93.8096 14.3377V7.70856C93.8096 6.80904 94.1669 5.94635 94.803 5.31029C95.439 4.67423 96.3017 4.31689 97.2012 4.31689H105.661C106.561 4.31689 107.423 4.67423 108.059 5.31029C108.695 5.94635 109.053 6.80904 109.053 7.70856V14.3185C114.361 15.343 119.404 17.4415 123.872 20.4851L128.497 15.8409C129.135 15.2008 130.002 14.8404 130.906 14.8388C131.351 14.84 131.791 14.9292 132.201 15.1011C132.611 15.2731 132.983 15.5245 133.296 15.8409L139.269 21.8534C139.585 22.1683 139.835 22.5423 140.005 22.954C140.176 23.3657 140.264 23.8069 140.264 24.2526C140.264 24.6982 140.176 25.1395 140.005 25.5511C139.835 25.9628 139.585 26.3368 139.269 26.6518L134.644 31.2961C137.7 35.8094 139.805 40.8974 140.83 46.2502H147.344C147.789 46.2502 148.23 46.338 148.642 46.5084C149.053 46.6788 149.427 46.9287 149.742 47.2436C150.057 47.5586 150.307 47.9325 150.477 48.344C150.648 48.7555 150.736 49.1965 150.736 49.6419V58.1403C150.721 58.5153 150.563 58.8704 150.294 59.1321C150.025 59.3939 149.666 59.5425 149.29 59.5471Z" stroke="black" stroke-width="4" mask="url(#path-1-outside-1_182_162)"/>
<path d="M75.8217 60.5468L75.9783 60.5451L76.1268 60.4956L76.2918 60.4406C76.8953 60.3193 77.4322 59.9744 77.7935 59.4733C78.1725 58.9475 78.3273 58.2928 78.2238 57.6529L78.2236 57.6516C78.024 56.4277 77.9189 55.1904 77.909 53.9504L77.9089 53.9404L77.9087 53.9303C77.8205 50.7858 78.3637 47.6556 79.5062 44.7246C80.6486 41.7937 82.3672 39.1215 84.5602 36.8662C86.7531 34.6109 89.3761 32.8181 92.2738 31.594C95.1716 30.3698 98.2854 29.7391 101.431 29.7391C104.577 29.7391 107.691 30.3698 110.589 31.594C113.486 32.8181 116.109 34.6109 118.302 36.8662C120.495 39.1215 122.214 41.7937 123.356 44.7246C124.499 47.6556 125.042 50.7858 124.954 53.9303L124.953 53.9433L124.953 53.9562C124.951 55.2459 124.845 56.5334 124.639 57.8065L124.639 57.8071C124.535 58.4469 124.69 59.1017 125.069 59.6274C125.447 60.1515 126.017 60.5047 126.654 60.61C126.971 60.6648 127.296 60.6561 127.609 60.5842C127.925 60.5118 128.223 60.3769 128.486 60.1874C128.749 59.9979 128.971 59.7578 129.139 59.4811C129.306 59.2073 129.417 58.9032 129.465 58.5863C129.72 57.061 129.847 55.517 129.844 53.9706C129.943 50.1808 129.282 46.4096 127.901 42.8789C126.519 39.3438 124.442 36.1214 121.793 33.402L121.077 34.0996L121.793 33.402C119.145 30.6825 115.979 28.5211 112.482 27.0453C108.985 25.5694 105.227 24.8091 101.431 24.8091C97.6353 24.8091 93.8779 25.5694 90.3806 27.0453C86.8834 28.5211 83.7172 30.6825 81.0689 33.402C78.4206 36.1214 76.3439 39.3438 74.9613 42.8789C73.5802 46.4101 72.9196 50.1818 73.0184 53.972C73.0204 55.4862 73.147 56.9975 73.3971 58.4909C73.4859 59.0663 73.7787 59.5907 74.2221 59.9682C74.668 60.3478 75.2362 60.5533 75.8217 60.5468Z" fill="#12161C" stroke="black" stroke-width="2"/>
<path d="M114.97 54.3804H118.342C118.991 54.3804 119.613 54.1227 120.071 53.6642C120.53 53.2056 120.787 52.5836 120.787 51.9351C120.787 51.2865 120.53 50.6645 120.071 50.206C119.613 49.7474 118.991 49.4897 118.342 49.4897H114.97C114.321 49.4897 113.699 49.7474 113.241 50.206C112.782 50.6645 112.524 51.2865 112.524 51.9351C112.524 52.5836 112.782 53.2056 113.241 53.6642C113.699 54.1227 114.321 54.3804 114.97 54.3804Z" fill="#12161C" stroke="black" stroke-width="2"/>
<path d="M84.5215 54.3804H87.9131C88.5617 54.3804 89.1837 54.1227 89.6422 53.6642C90.1008 53.2056 90.3585 52.5836 90.3585 51.9351C90.3585 51.2865 90.1008 50.6645 89.6422 50.206C89.1837 49.7474 88.5617 49.4897 87.9131 49.4897H84.5215C83.8729 49.4897 83.251 49.7474 82.7924 50.206C82.3338 50.6645 82.0762 51.2865 82.0762 51.9351C82.0762 52.5836 82.3338 53.2056 82.7924 53.6642C83.251 54.1227 83.8729 54.3804 84.5215 54.3804Z" fill="#12161C" stroke="black" stroke-width="2"/>
<path d="M170.257 73.613L170.26 73.613C171.11 73.61 171.952 73.4396 172.736 73.1115C173.52 72.7835 174.232 72.3042 174.831 71.701C175.43 71.0978 175.904 70.3825 176.227 69.5961C176.549 68.8096 176.714 67.9673 176.711 67.1172V62.0911C176.711 60.3783 176.032 58.7353 174.823 57.5221C173.614 56.3088 171.973 55.6242 170.26 55.6182H170.257L32.6246 55.6182L32.6211 55.6182C30.9083 55.6242 29.2677 56.3088 28.0587 57.5221C26.8498 58.7353 26.1709 60.3783 26.1709 62.0911V67.1191C26.1682 67.9685 26.3326 68.8102 26.6549 69.5961C26.9775 70.3825 27.4517 71.0978 28.0507 71.701C28.6496 72.3042 29.3615 72.7835 30.1457 73.1115L30.5316 72.189L30.1457 73.1115C30.9299 73.4396 31.771 73.61 32.6211 73.613H32.6246L170.257 73.613ZM31.0616 62.0911V62.0911C31.0615 61.6734 31.2266 61.2728 31.5208 60.9764C31.8142 60.6807 32.2124 60.5128 32.6288 60.5088H170.253C170.669 60.5128 171.067 60.6807 171.361 60.9764C171.655 61.2728 171.82 61.6735 171.82 62.0911L171.82 67.1208L171.82 67.1283C171.821 67.336 171.782 67.5421 171.704 67.7347C171.626 67.9272 171.511 68.1026 171.365 68.2506C171.219 68.3986 171.045 68.5165 170.854 68.5974C170.664 68.6779 170.459 68.7204 170.253 68.7223H32.6287C32.4221 68.7204 32.2178 68.6779 32.0274 68.5974C31.836 68.5165 31.6624 68.3986 31.5166 68.2506L30.8042 68.9524L31.5166 68.2506C31.3708 68.1026 31.2555 67.9273 31.1774 67.7347C31.0994 67.5421 31.06 67.3361 31.0615 67.1283H31.0616V67.1208V62.0911Z" fill="#12161C" stroke="black" stroke-width="2"/>
<path d="M81.022 123.154L81.0158 123.147L36.5965 72.7731L36.5937 72.77L36.5937 72.77C36.286 72.4181 36.0857 71.9854 36.0163 71.5231C35.947 71.0608 36.0116 70.5884 36.2025 70.1617L36.2047 70.1568L36.2047 70.1568C36.3982 69.7305 36.7099 69.3688 37.103 69.1145C37.496 68.8602 37.9537 68.724 38.4218 68.7222L38.4257 68.7222V68.7222H164.457H164.461C164.929 68.724 165.387 68.8602 165.78 69.1145M81.022 123.154L165.236 69.954M81.022 123.154L81.0283 123.161C81.2618 123.416 81.5459 123.619 81.8625 123.758C82.1786 123.897 82.5202 123.968 82.8654 123.967C82.8659 123.967 82.8665 123.967 82.867 123.967L81.022 123.154ZM165.78 69.1145L165.236 69.954M165.78 69.1145C165.78 69.1145 165.78 69.1144 165.78 69.1144L165.236 69.954M165.78 69.1145C166.171 69.3676 166.482 69.7272 166.675 70.1508M165.236 69.954C165.469 70.1043 165.653 70.3181 165.767 70.5701C165.885 70.8212 165.926 71.1016 165.885 71.3759C165.844 71.6502 165.722 71.9062 165.536 72.1117L166.286 72.7738L166.282 72.7778C166.598 72.4271 166.804 71.9912 166.874 71.5242C166.944 71.0568 166.875 70.5792 166.675 70.1508M166.675 70.1508C166.674 70.1491 166.674 70.1473 166.673 70.1456L165.768 70.57L166.678 70.1567C166.677 70.1548 166.676 70.1528 166.675 70.1508ZM121.789 123.148L166.277 72.7832L119.961 122.967L119.959 123.967C120.304 123.968 120.645 123.896 120.959 123.755C121.274 123.615 121.555 123.409 121.785 123.152L121.789 123.148ZM159.021 73.6128L118.855 119.077H84.0282L43.8618 73.6128H159.021Z" fill="#12161C" stroke="black" stroke-width="2"/>
<path d="M80.419 154.127C80.4181 154.534 80.519 154.935 80.7123 155.293C80.9059 155.652 81.1862 155.957 81.5275 156.18L81.5343 156.184L81.5412 156.188C81.9168 156.425 82.3482 156.557 82.791 156.572C83.166 156.614 83.546 156.565 83.8986 156.429L83.9313 156.417L83.963 156.402L120.982 139.058L120.982 139.058L120.994 139.053C121.411 138.851 121.764 138.537 122.014 138.146C122.263 137.755 122.399 137.302 122.406 136.838L122.406 136.831V136.823V121.522H122.406L122.406 121.509C122.397 120.866 122.139 120.253 121.684 119.798C121.23 119.344 120.616 119.085 119.974 119.077V119.077H119.961H82.8643C82.2157 119.077 81.5938 119.334 81.1352 119.793C80.6766 120.251 80.419 120.873 80.419 121.522V154.127ZM80.419 154.127C80.419 154.127 80.419 154.126 80.419 154.126L81.419 154.128H80.419V154.127ZM117.515 135.261L85.3096 150.303V123.967H117.515V135.261Z" fill="#12161C" stroke="black" stroke-width="2"/>
<path d="M13.2885 166.248L13.2789 166.247C13.2658 166.247 13.2528 166.249 13.2407 166.254L13.2885 166.248ZM13.2885 166.248L13.2981 166.247M13.2885 166.248L13.2981 166.247M13.2981 166.247L60.2033 166.17L60.2112 166.17L60.2192 166.17C60.2323 166.17 60.2453 166.172 60.2574 166.177C60.2695 166.182 60.2805 166.189 60.2899 166.198C60.2992 166.208 60.3066 166.219 60.3117 166.231C60.3167 166.243 60.3193 166.256 60.3193 166.269V166.269V176.733C60.3193 176.764 60.3069 176.794 60.2849 176.816C60.2628 176.838 60.2329 176.851 60.2016 176.851H13.2964C13.2652 176.851 13.2353 176.838 13.2132 176.816C13.1911 176.794 13.1787 176.764 13.1787 176.733V166.346V166.346M13.2981 166.247L13.1787 166.346M13.1787 166.346C13.1787 166.333 13.1813 166.32 13.1864 166.308C13.1914 166.296 13.1988 166.285 13.2082 166.276C13.2175 166.266 13.2285 166.259 13.2407 166.254L13.1787 166.346ZM8.2881 166.264H8.28809V166.269V176.656C8.28809 177.984 8.81575 179.258 9.75499 180.197L10.4477 179.505L9.75499 180.197C10.6942 181.137 11.9681 181.664 13.2964 181.664H60.2016C61.5299 181.664 62.8038 181.137 63.7431 180.197C64.6823 179.258 65.21 177.984 65.21 176.656L65.21 166.269L65.2099 166.264C65.2036 164.94 64.6731 163.672 63.7346 162.738L63.0292 163.447L63.7346 162.738C62.796 161.804 61.5258 161.28 60.2016 161.28H13.2964C13.2964 161.28 13.2964 161.28 13.2964 161.28C11.9723 161.28 10.702 161.804 9.76349 162.738C8.82494 163.672 8.29446 164.94 8.2881 166.264Z" fill="#12161C" stroke="black" stroke-width="2"/>
<path d="M75.673 147.522L74.969 148.226L75.673 147.522C75.1166 146.966 74.4562 146.524 73.7293 146.223C73.0024 145.922 72.2234 145.767 71.4366 145.767H26.1501C24.6532 145.767 23.2175 146.362 22.159 147.42C21.1005 148.479 20.5059 149.914 20.5059 151.411V160.526C20.5059 162.023 21.1005 163.459 22.159 164.518C23.2175 165.576 24.6532 166.171 26.1501 166.171L71.4366 166.171L71.4404 166.171C73.0305 166.165 74.5533 165.529 75.6755 164.402C76.7977 163.276 77.4277 161.75 77.4277 160.16V151.758C77.4277 150.971 77.2728 150.192 76.9717 149.466C76.6706 148.739 76.2293 148.078 75.673 147.522ZM26.1501 150.754L26.1523 150.754L71.4366 150.658C71.4369 150.658 71.4372 150.658 71.4375 150.658C71.7291 150.658 72.0086 150.774 72.2148 150.98C72.4212 151.186 72.5371 151.466 72.5371 151.758V160.16C72.5371 160.456 72.4205 160.739 72.2127 160.949C72.0058 161.157 71.7251 161.276 71.4313 161.28H26.1501C25.9503 161.28 25.7586 161.201 25.6172 161.059C25.4759 160.918 25.3965 160.726 25.3965 160.526V151.508C25.3965 151.308 25.4759 151.116 25.6172 150.975C25.7586 150.833 25.9503 150.754 26.1501 150.754Z" fill="#12161C" stroke="black" stroke-width="2"/>
<path d="M31.7643 160.418L32.6908 160.042L31.7643 160.418C31.8864 160.719 32.0673 160.991 32.2965 161.221C32.5257 161.45 32.7985 161.631 33.0988 161.753C33.397 161.874 33.7164 161.935 34.0382 161.931C34.357 161.93 34.6726 161.867 34.9672 161.745C35.2639 161.622 35.5334 161.442 35.7605 161.215L35.0631 160.517L35.7605 161.215C35.9875 160.988 36.1677 160.718 36.2906 160.422C36.4134 160.125 36.4767 159.807 36.4767 159.486V152.433C36.4767 151.784 36.2191 151.162 35.7605 150.704C35.3019 150.245 34.6799 149.987 34.0314 149.987C33.3828 149.987 32.7609 150.245 32.3023 150.704C31.8437 151.162 31.5861 151.784 31.5861 152.433V159.48C31.5827 159.801 31.6433 160.12 31.7643 160.418Z" fill="#12161C" stroke="black" stroke-width="2"/>
<path d="M47.2377 161.215C47.6947 161.672 48.3139 161.929 48.96 161.931C49.2818 161.935 49.6011 161.874 49.8993 161.753C50.1997 161.631 50.4725 161.45 50.7017 161.221C50.9309 160.991 51.1118 160.719 51.2338 160.418L50.3175 160.046L51.2338 160.418C51.3549 160.12 51.4155 159.801 51.4121 159.48V152.433C51.4121 151.784 51.1545 151.162 50.6959 150.704C50.2373 150.245 49.6153 149.987 48.9668 149.987C48.3182 149.987 47.6963 150.245 47.2377 150.704C46.7791 151.162 46.5215 151.784 46.5215 152.433V159.486C46.5215 160.134 46.7791 160.756 47.2377 161.215Z" fill="#12161C" stroke="black" stroke-width="2"/>
<path d="M66.1801 160.422L65.2562 160.039L66.1801 160.422C66.303 160.125 66.3662 159.807 66.3662 159.486V152.433C66.3662 151.784 66.1086 151.162 65.65 150.704L64.9429 151.411L65.65 150.704C65.1914 150.245 64.5694 149.987 63.9209 149.987C63.2723 149.987 62.6504 150.245 62.1918 150.704C61.7332 151.162 61.4756 151.784 61.4756 152.433V159.486C61.4756 160.134 61.7332 160.756 62.1918 161.215C62.6504 161.673 63.2723 161.931 63.9209 161.931C64.242 161.931 64.56 161.868 64.8567 161.745C65.1534 161.622 65.4229 161.442 65.65 161.215C65.8771 160.988 66.0572 160.718 66.1801 160.422Z" fill="#12161C" stroke="black" stroke-width="2"/>
<path d="M21.7818 177.367L21.7949 177.367L21.808 177.367C22.4504 177.358 23.0642 177.099 23.5185 176.645C23.9728 176.191 24.2318 175.577 24.2401 174.934L24.2402 174.934V174.921V168.022C24.2402 167.374 23.9826 166.752 23.524 166.293C23.0654 165.835 22.4434 165.577 21.7949 165.577C21.1464 165.577 20.5244 165.835 20.0658 166.293C19.6072 166.752 19.3496 167.374 19.3496 168.022V174.921H19.3495L19.3497 174.934C19.3581 175.577 19.617 176.191 20.0713 176.645C20.5257 177.099 21.1394 177.358 21.7818 177.367Z" fill="#12161C" stroke="black" stroke-width="2"/>
<path d="M36.749 177.367V177.367L36.7621 177.367C37.4045 177.358 38.0183 177.099 38.4726 176.645C38.9269 176.191 39.1859 175.577 39.1943 174.934L39.1943 174.934V174.921V168.022C39.1943 167.374 38.9367 166.752 38.4781 166.293C38.0195 165.835 37.3975 165.577 36.749 165.577C36.1005 165.577 35.4785 165.835 35.0199 166.293C34.5613 166.752 34.3037 167.374 34.3037 168.022V174.921C34.3037 175.57 34.5613 176.192 35.0199 176.651C35.4785 177.109 36.1005 177.367 36.749 177.367Z" fill="#12161C" stroke="black" stroke-width="2"/>
<path d="M51.7031 177.367V177.367L51.7162 177.367C52.3586 177.358 52.9724 177.099 53.4267 176.645C53.881 176.191 54.14 175.577 54.1484 174.934L54.1484 174.934V174.921V168.022C54.1484 167.374 53.8908 166.752 53.4322 166.293C52.9736 165.835 52.3516 165.577 51.7031 165.577C51.0546 165.577 50.4326 165.835 49.974 166.293C49.5154 166.752 49.2578 167.374 49.2578 168.022V174.921C49.2578 175.57 49.5154 176.192 49.974 176.651C50.4326 177.109 51.0546 177.367 51.7031 177.367Z" fill="#12161C" stroke="black" stroke-width="2"/>
<path d="M140.337 158.472C140.459 158.772 140.64 159.045 140.869 159.274C141.098 159.503 141.371 159.684 141.671 159.806C141.969 159.928 142.289 159.988 142.611 159.985C143.257 159.983 143.876 159.725 144.333 159.268C144.791 158.81 145.049 158.188 145.049 157.539V125.762C145.049 125.113 144.791 124.491 144.333 124.033C143.874 123.574 143.252 123.316 142.604 123.316C141.955 123.316 141.333 123.574 140.875 124.033C140.416 124.491 140.158 125.113 140.158 125.762V157.533C140.155 157.855 140.216 158.174 140.337 158.472Z" fill="#12161C" stroke="black" stroke-width="2"/>
<path d="M134.805 153.216L134.807 153.218L140.873 159.265C141.099 159.495 141.369 159.677 141.667 159.801C141.965 159.925 142.284 159.987 142.607 159.985C142.928 159.985 143.245 159.922 143.541 159.799C143.838 159.676 144.108 159.495 144.334 159.267L150.402 153.218L150.402 153.218L150.406 153.213C150.633 152.985 150.812 152.714 150.934 152.416C151.056 152.118 151.118 151.799 151.116 151.477C151.115 151.155 151.05 150.836 150.925 150.54C150.801 150.243 150.619 149.973 150.39 149.747C150.161 149.52 149.89 149.341 149.592 149.219C149.294 149.097 148.975 149.036 148.653 149.037C148.331 149.039 148.013 149.104 147.716 149.228C147.42 149.352 147.151 149.534 146.925 149.761C146.925 149.762 146.924 149.763 146.923 149.763L142.603 154.084L138.266 149.763C138.041 149.534 137.773 149.352 137.477 149.227C137.178 149.101 136.858 149.036 136.534 149.036C136.21 149.036 135.889 149.101 135.591 149.227L135.98 150.148L135.591 149.227C135.294 149.352 135.026 149.535 134.801 149.765C134.345 150.223 134.09 150.842 134.09 151.488C134.09 152.136 134.347 152.758 134.805 153.216Z" fill="#12161C" stroke="black" stroke-width="2"/>
<path d="M42.7867 135.144L42.7867 135.144H42.7998C43.4484 135.144 44.0703 134.887 44.5289 134.428C44.9875 133.97 45.2451 133.348 45.2451 132.699V100.921C45.2451 100.273 44.9875 99.6509 44.5289 99.1923L43.8218 99.8994L44.5289 99.1923C44.0703 98.7337 43.4483 98.4761 42.7998 98.4761C42.1513 98.4761 41.5293 98.7337 41.0707 99.1923C40.6121 99.6509 40.3545 100.273 40.3545 100.921V132.699H40.3544L40.3546 132.712C40.363 133.355 40.6219 133.968 41.0762 134.423C41.5305 134.877 42.1443 135.136 42.7867 135.144Z" fill="#12161C" stroke="black" stroke-width="2"/>
<path d="M47.1415 124.901L42.801 129.241L38.4784 124.902L38.4784 124.902L38.4766 124.9C38.0181 124.442 37.3966 124.185 36.7486 124.185C36.1006 124.185 35.4791 124.442 35.0206 124.9L35.0142 124.907L35.008 124.913C34.5606 125.376 34.3105 125.995 34.3105 126.639C34.3105 127.283 34.5606 127.901 35.008 128.365L35.014 128.371L35.0201 128.377L41.0692 134.426C41.2957 134.655 41.5655 134.836 41.8628 134.959C42.157 135.081 42.4723 135.144 42.7907 135.145C43.1156 135.15 43.4382 135.089 43.7384 134.964C44.0383 134.84 44.3094 134.655 44.5348 134.421L50.5973 128.378L50.6039 128.371L50.6105 128.365C51.0579 127.901 51.308 127.283 51.308 126.639C51.308 125.995 51.0579 125.376 50.6105 124.913L50.6043 124.907L50.5979 124.9C50.1394 124.442 49.5179 124.185 48.8699 124.185C48.2219 124.185 47.6004 124.442 47.1419 124.9L47.1415 124.901Z" fill="#12161C" stroke="black" stroke-width="2"/>
<path d="M108.731 60.5072L108.761 60.5087L108.79 60.5085C109.39 60.5048 109.969 60.2821 110.417 59.882C110.865 59.4819 111.151 58.9321 111.222 58.3358L111.226 58.3026L111.228 58.2692C111.306 56.7522 110.971 55.2424 110.258 53.9011C109.545 52.5598 108.481 51.4376 107.18 50.6543L107.145 50.6335L107.109 50.6155C105.451 49.7924 103.643 49.3181 101.795 49.222C100.892 49.1515 99.9984 48.9907 99.1276 48.7419C98.4012 48.5122 97.7633 48.064 97.301 47.4584C96.8513 46.8694 96.5891 46.1594 96.5474 45.4207C96.6946 44.2935 97.2656 43.2635 98.146 42.5414C99.0458 41.8033 100.198 41.445 101.358 41.5425L101.428 41.5484L101.498 41.5444C102.533 41.4858 103.559 41.7649 104.421 42.3398C105.26 42.8989 105.9 43.7083 106.25 44.6517C106.305 44.9482 106.413 45.2324 106.571 45.4899L107.424 44.9669L106.571 45.4899C106.751 45.7822 106.989 46.0334 107.272 46.2274C107.555 46.4214 107.875 46.5537 108.212 46.6159C108.55 46.678 108.896 46.6686 109.229 46.5881C109.563 46.5077 109.875 46.358 110.147 46.1489C110.419 45.9398 110.644 45.6759 110.807 45.3743C110.97 45.0727 111.068 44.7402 111.094 44.3983C111.119 44.0657 111.077 43.7315 110.968 43.4163C110.352 41.3828 109.079 39.6105 107.349 38.3767C105.626 37.1481 103.545 36.5226 101.431 36.5966C99.0023 36.4679 96.6183 37.2934 94.7887 38.8984C92.9467 40.5141 91.8147 42.7898 91.6374 45.2336L91.6339 45.281L91.635 45.3286C91.6756 47.1194 92.276 48.8525 93.352 50.2845C94.428 51.7166 95.9255 52.7756 97.6342 53.313L97.6342 53.3131L97.647 53.3169C98.8374 53.6738 100.061 53.9063 101.3 54.0107L101.322 54.0126L101.344 54.0135C102.528 54.0602 103.691 54.3415 104.765 54.8411C105.285 55.163 105.713 55.6164 106.003 56.1561C106.301 56.7098 106.444 57.3337 106.416 57.9619L106.416 57.964C106.39 58.6073 106.618 59.2351 107.051 59.7113C107.485 60.1874 108.088 60.4734 108.731 60.5072Z" fill="#12161C" stroke="black" stroke-width="2"/>
<path d="M101.428 41.4691L101.428 41.4692L101.441 41.4692C101.765 41.4692 102.086 41.4049 102.385 41.28C102.684 41.1551 102.955 40.972 103.182 40.7415C103.41 40.511 103.589 40.2375 103.71 39.9371C103.83 39.639 103.89 39.3201 103.887 38.9988V35.5166C103.887 34.8681 103.629 34.2461 103.171 33.7875C102.712 33.3289 102.09 33.0713 101.441 33.0713C100.793 33.0713 100.171 33.3289 99.7123 33.7875C99.2537 34.2461 98.9961 34.8681 98.9961 35.5166V39.0239H98.996L98.9962 39.037C99.0046 39.6794 99.2635 40.2932 99.7178 40.7475C100.172 41.2018 100.786 41.4607 101.428 41.4691Z" fill="#12161C" stroke="black" stroke-width="2"/>
</svg>
